<svg width="40" height="40" viewBox="0 0 40 40" fill="none" xmlns="http://www.w3.org/2000/svg">
<rect width="40" height="40" rx="8" fill="#D7D7FF"/>
<ellipse cx="19.9981" cy="12.4942" rx="6.49424" ry="6.49424" fill="#F3F3FF"/>
<path d="M31.9996 30.9998V27.3075C31.9996 24.0979 29.3974 21.4981 26.1878 21.4969C25.053 21.4965 24.0538 20.9122 23.4789 20.0273C21.471 21.7428 18.5274 21.7418 16.5206 20.0273C15.9457 20.9122 14.9465 21.4965 13.8117 21.4969C10.6022 21.4981 8 24.0979 8 27.3075V30.9998C8 32.6566 9.34314 33.9998 11 33.9998H19.9998H28.9996C30.6564 33.9998 31.9996 32.6566 31.9996 30.9998Z" fill="#F3F3FF"/>
<path d="M14.9519 10.1273C14.2131 11.4534 14.2075 13.0059 14.8437 14.2571C14.984 14.5331 15.3319 14.6058 15.5972 14.4463C15.8513 14.2934 15.9478 13.9757 15.8522 13.6949C15.5433 12.7879 15.4486 11.7325 15.8451 10.8137C16.0056 10.4418 15.7967 9.93384 15.3929 9.90073C15.2139 9.88604 15.0394 9.97039 14.9519 10.1273Z" fill="white"/>
<path d="M10.5 34C10.5 31.5723 9.79263 25.9777 12.2034 24.0095C14.2342 22.3515 17.7018 23.6554 18.5714 21.1822C17.6227 20.9054 16.6991 20.2009 16.4688 20C15.8974 20.8981 14.9043 21.4912 13.7763 21.4916C10.5863 21.4927 8 24.1314 8 27.389V31.5C8 32.8807 9.11929 34 10.5 34Z" fill="white"/>
<path d="M25.0004 31.0098C19.5042 27.9132 23.3515 24.5514 25.0004 26.6773C26.6493 24.5514 30.4966 27.9132 25.0004 31.0098Z" fill="#FFD2D2"/>
<path fill-rule="evenodd" clip-rule="evenodd" d="M25.0004 30.7219C23.7279 29.9849 23.0154 29.2501 22.67 28.6089C22.3167 27.9531 22.3454 27.3953 22.5446 26.9969C22.7473 26.5915 23.1385 26.3241 23.5635 26.2699C23.9809 26.2167 24.444 26.3678 24.8029 26.8306L25.0004 27.0853L25.198 26.8306C25.5569 26.3678 26.0199 26.2167 26.4373 26.2699C26.8624 26.3241 27.2535 26.5915 27.4562 26.9969C27.6554 27.3953 27.6842 27.9531 27.3309 28.6089C26.9855 29.2501 26.2729 29.9849 25.0004 30.7219ZM25.0004 26.3012C24.5612 25.8684 24.0157 25.7083 23.5003 25.774C22.9119 25.849 22.3756 26.2169 22.0974 26.7733C21.8157 27.3367 21.8101 28.0671 22.2298 28.8461C22.6463 29.6193 23.4793 30.4397 24.8777 31.2276L25.0004 31.2967L25.1231 31.2276C26.5215 30.4397 27.3545 29.6193 27.7711 28.8461C28.1907 28.0671 28.1851 27.3367 27.9034 26.7733C27.6252 26.2169 27.0889 25.849 26.5006 25.774C25.9852 25.7083 25.4396 25.8684 25.0004 26.3012Z" fill="#FAFAFF"/>
</svg>
