<svg width="18" height="18" viewBox="0 0 18 18" fill="none" xmlns="http://www.w3.org/2000/svg">
<g clip-path="url(#clip0_1350_8546)">
<path d="M4.1715 8.72438C4.1715 7.4745 4.7205 6.75225 5.65537 6.75225C6.4215 6.75225 6.93562 7.281 6.98962 7.99763H8.28V7.875C8.2215 6.54075 7.128 5.625 5.64525 5.625C3.84075 5.625 2.8125 6.80625 2.8125 8.71987V9.56025C2.8125 11.4728 3.83063 12.6315 5.64525 12.6315C7.1235 12.6315 8.21588 11.7405 8.28 10.4501V10.3219H6.98962C6.93562 11.0138 6.43162 11.5031 5.65537 11.5031C4.71037 11.5031 4.1715 10.8056 4.1715 9.56025V8.72438V8.72438ZM11.079 8.72438C11.079 7.4745 11.628 6.75225 12.5618 6.75225C13.329 6.75225 13.8431 7.281 13.8971 7.99763H15.1875V7.875C15.1279 6.54075 14.0355 5.625 12.5527 5.625C10.7483 5.625 9.72 6.80625 9.72 8.71987V9.56025C9.72 11.4728 10.7381 12.6315 12.5527 12.6315C14.031 12.6315 15.1234 11.7405 15.1875 10.4501V10.3219H13.8971C13.8431 11.0138 13.338 11.5031 12.5618 11.5031C11.6179 11.5031 11.079 10.8056 11.079 9.56025V8.72438V8.72438Z" fill="black"/>
<path d="M15.75 3.375C16.0484 3.375 16.3345 3.49353 16.5455 3.7045C16.7565 3.91548 16.875 4.20163 16.875 4.5V13.5C16.875 13.7984 16.7565 14.0845 16.5455 14.2955C16.3345 14.5065 16.0484 14.625 15.75 14.625H2.25C1.95163 14.625 1.66548 14.5065 1.4545 14.2955C1.24353 14.0845 1.125 13.7984 1.125 13.5V4.5C1.125 4.20163 1.24353 3.91548 1.4545 3.7045C1.66548 3.49353 1.95163 3.375 2.25 3.375H15.75ZM2.25 2.25C1.65326 2.25 1.08097 2.48705 0.65901 2.90901C0.237053 3.33097 0 3.90326 0 4.5L0 13.5C0 14.0967 0.237053 14.669 0.65901 15.091C1.08097 15.5129 1.65326 15.75 2.25 15.75H15.75C16.3467 15.75 16.919 15.5129 17.341 15.091C17.7629 14.669 18 14.0967 18 13.5V4.5C18 3.90326 17.7629 3.33097 17.341 2.90901C16.919 2.48705 16.3467 2.25 15.75 2.25H2.25Z" fill="black"/>
</g>
<defs>
<clipPath id="clip0_1350_8546">
<rect width="18" height="18" fill="white"/>
</clipPath>
</defs>
</svg>
