<svg width="67" height="67" viewBox="0 0 67 67" fill="none" xmlns="http://www.w3.org/2000/svg">
<path fill-rule="evenodd" clip-rule="evenodd" d="M5.58203 33.5168C5.58203 18.1081 18.1122 5.58398 33.4987 5.58398C48.8852 5.58398 61.4154 18.1081 61.4154 33.5168C61.4154 48.8932 48.8852 61.4173 33.4987 61.4173C18.1122 61.4173 5.58203 48.8932 5.58203 33.5168ZM43.7384 36.3421C44.0348 36.0459 44.4121 35.588 44.4929 35.4803C44.924 34.9147 45.1396 34.2144 45.1396 33.5168C45.1396 32.733 44.8971 32.0058 44.439 31.4133C44.4015 31.3758 44.328 31.2958 44.2321 31.1915C44.0529 30.9964 43.7956 30.7163 43.5498 30.4706C41.3402 28.1005 35.5736 24.222 32.5556 23.0369C32.0975 22.8511 30.9388 22.4444 30.319 22.4175C29.7262 22.4175 29.1603 22.5521 28.6214 22.8215C27.9477 23.1986 27.4088 23.7911 27.1124 24.4914C26.9237 24.9762 26.6273 26.4306 26.6273 26.4575C26.3309 28.0466 26.1692 30.6322 26.1692 33.4872C26.1692 36.2102 26.3309 38.6854 26.5734 40.3014C26.5801 40.308 26.6033 40.4236 26.6393 40.6032C26.7488 41.149 26.9768 42.2862 27.2201 42.7523C27.813 43.8835 28.9717 44.5838 30.2112 44.5838H30.319C31.1274 44.5569 32.825 43.8566 32.825 43.8297C35.6814 42.6446 41.3132 38.9547 43.5767 36.5037L43.7384 36.3421Z" fill="white"/>
</svg>
