<svg width="97" height="97" viewBox="0 0 97 97" fill="none" xmlns="http://www.w3.org/2000/svg">
<circle cx="48.5" cy="48.5" r="48.5" fill="#E9EDF7"/>
<path d="M43.625 41.4099H46.5117V54.6248C46.5117 54.7967 46.6523 54.9373 46.8242 54.9373H49.168C49.3398 54.9373 49.4805 54.7967 49.4805 54.6248V41.4099H52.375C52.6367 41.4099 52.7812 41.1092 52.6211 40.906L48.2461 35.367C48.2169 35.3296 48.1795 35.2994 48.1369 35.2786C48.0942 35.2579 48.0474 35.2471 48 35.2471C47.9526 35.2471 47.9058 35.2579 47.8631 35.2786C47.8205 35.2994 47.7831 35.3296 47.7539 35.367L43.3789 40.9021C43.2188 41.1092 43.3633 41.4099 43.625 41.4099ZM62.2969 53.4529H59.9531C59.7812 53.4529 59.6406 53.5935 59.6406 53.7654V59.781H36.3594V53.7654C36.3594 53.5935 36.2188 53.4529 36.0469 53.4529H33.7031C33.5312 53.4529 33.3906 53.5935 33.3906 53.7654V61.4998C33.3906 62.1912 33.9492 62.7498 34.6406 62.7498H61.3594C62.0508 62.7498 62.6094 62.1912 62.6094 61.4998V53.7654C62.6094 53.5935 62.4688 53.4529 62.2969 53.4529Z" fill="black"/>
</svg>
