<svg width="24" height="24" viewBox="0 0 24 24" fill="none" xmlns="http://www.w3.org/2000/svg">
<g filter="url(#filter0_ii_6387_36597)">
<path fill-rule="evenodd" clip-rule="evenodd" d="M3 5.75H9.35352C9.67998 6.90425 10.7412 7.75 12 7.75C13.2588 7.75 14.32 6.90425 14.6465 5.75H21C21.4142 5.75 21.75 5.41421 21.75 5C21.75 4.58579 21.4142 4.25 21 4.25H14.6465C14.32 3.09575 13.2588 2.25 12 2.25C10.7412 2.25 9.67998 3.09575 9.35352 4.25H3C2.58579 4.25 2.25 4.58579 2.25 5C2.25 5.41421 2.58579 5.75 3 5.75ZM17 9.25C15.4812 9.25 14.25 10.4812 14.25 12C14.25 13.5188 15.4812 14.75 17 14.75C18.2588 14.75 19.32 13.9043 19.6465 12.75H21C21.4142 12.75 21.75 12.4142 21.75 12C21.75 11.5858 21.4142 11.25 21 11.25H19.6465C19.32 10.0957 18.2588 9.25 17 9.25ZM2.25 12C2.25 11.5858 2.58579 11.25 3 11.25H12C12.4142 11.25 12.75 11.5858 12.75 12C12.75 12.4142 12.4142 12.75 12 12.75H3C2.58579 12.75 2.25 12.4142 2.25 12ZM4.35352 19.75H3C2.58579 19.75 2.25 19.4142 2.25 19C2.25 18.5858 2.58579 18.25 3 18.25H4.35352C4.67998 17.0957 5.74122 16.25 7 16.25C8.51878 16.25 9.75 17.4812 9.75 19C9.75 20.5188 8.51878 21.75 7 21.75C5.74122 21.75 4.67998 20.9043 4.35352 19.75ZM11.25 19C11.25 18.5858 11.5858 18.25 12 18.25H21C21.4142 18.25 21.75 18.5858 21.75 19C21.75 19.4142 21.4142 19.75 21 19.75H12C11.5858 19.75 11.25 19.4142 11.25 19Z" fill="#FAFBFB"/>
</g>
<defs>
<filter id="filter0_ii_6387_36597" x="-1" y="-1" width="27" height="27" filterUnits="userSpaceOnUse" color-interpolation-filters="sRGB">
<feFlood flood-opacity="0" result="BackgroundImageFix"/>
<feBlend mode="normal" in="SourceGraphic" in2="BackgroundImageFix" result="shape"/>
<feColorMatrix in="SourceAlpha" type="matrix" values="0 0 0 0 0 0 0 0 0 0 0 0 0 0 0 0 0 0 127 0" result="hardAlpha"/>
<feOffset dx="2" dy="2"/>
<feGaussianBlur stdDeviation="2"/>
<feComposite in2="hardAlpha" operator="arithmetic" k2="-1" k3="1"/>
<feColorMatrix type="matrix" values="0 0 0 0 0 0 0 0 0 0 0 0 0 0 0 0 0 0 0.32 0"/>
<feBlend mode="normal" in2="shape" result="effect1_innerShadow_6387_36597"/>
<feColorMatrix in="SourceAlpha" type="matrix" values="0 0 0 0 0 0 0 0 0 0 0 0 0 0 0 0 0 0 127 0" result="hardAlpha"/>
<feOffset dx="-1" dy="-1"/>
<feGaussianBlur stdDeviation="0.5"/>
<feComposite in2="hardAlpha" operator="arithmetic" k2="-1" k3="1"/>
<feColorMatrix type="matrix" values="0 0 0 0 0 0 0 0 0 0 0 0 0 0 0 0 0 0 0.06 0"/>
<feBlend mode="normal" in2="effect1_innerShadow_6387_36597" result="effect2_innerShadow_6387_36597"/>
</filter>
</defs>
</svg>
