<svg xmlns="http://www.w3.org/2000/svg" xmlns:xlink="http://www.w3.org/1999/xlink" viewBox="0 0 775.11 196.04"><defs><style>.cls-1{fill:#00002f;}.cls-2{fill:#0096ff;}.cls-3,.cls-4,.cls-5,.cls-6,.cls-7{fill-rule:evenodd;}.cls-3{fill:url(#linear-gradient);}.cls-4{fill:url(#linear-gradient-2);}.cls-5{fill:url(#linear-gradient-3);}.cls-6{fill:url(#linear-gradient-4);}.cls-7{fill:url(#linear-gradient-5);}</style><linearGradient id="linear-gradient" x1="0.32" y1="161.6" x2="169.46" y2="161.6" gradientUnits="userSpaceOnUse"><stop offset="0" stop-color="#7b0b84"/><stop offset="0.17" stop-color="#6c1c93"/><stop offset="0.5" stop-color="#444abb"/><stop offset="0.96" stop-color="#0593fa"/><stop offset="1" stop-color="#09f"/></linearGradient><linearGradient id="linear-gradient-2" x1="0.32" y1="34.44" x2="169.46" y2="34.44" gradientUnits="userSpaceOnUse"><stop offset="0" stop-color="#0168e5"/><stop offset="0.54" stop-color="#00bdf1"/><stop offset="0.97" stop-color="#00fdfa"/></linearGradient><linearGradient id="linear-gradient-3" x1="-20.71" y1="126.32" x2="35.9" y2="69.72" xlink:href="#linear-gradient-2"/><linearGradient id="linear-gradient-4" x1="63.94" y1="85.74" x2="105.2" y2="85.74" gradientUnits="userSpaceOnUse"><stop offset="0.03" stop-color="#00fdfa"/><stop offset="0.46" stop-color="#00bdf1"/><stop offset="1" stop-color="#0168e5"/></linearGradient><linearGradient id="linear-gradient-5" x1="84.47" y1="103.97" x2="105.52" y2="103.97" xlink:href="#linear-gradient"/></defs><g id="Layer_2" data-name="Layer 2"><g id="Layer_1-2" data-name="Layer 1"><path class="cls-1" d="M232.64,130.26a35.2,35.2,0,0,1-13.79-13.21,36.72,36.72,0,0,1-5-19,36.41,36.41,0,0,1,5-19,35.58,35.58,0,0,1,13.83-13.21A40.52,40.52,0,0,1,252.43,61a41,41,0,0,1,16.15,3.08,32.94,32.94,0,0,1,12.34,9l-8.64,8.12a25.19,25.19,0,0,0-19.23-8.43A27,27,0,0,0,239.78,76a23.36,23.36,0,0,0-9.15,9,27.57,27.57,0,0,0,0,26.12,23.36,23.36,0,0,0,9.15,9,27,27,0,0,0,13.27,3.24,25,25,0,0,0,19.23-8.53l8.64,8.22a32.88,32.88,0,0,1-12.39,9,41.39,41.39,0,0,1-16.2,3.09A40.5,40.5,0,0,1,232.64,130.26Z"/><path class="cls-1" d="M288.64,62H302v60.69h37.64V134h-51Z"/><path class="cls-1" d="M357.55,130.26A35.38,35.38,0,0,1,343.66,117a38.24,38.24,0,0,1,0-37.95,35.41,35.41,0,0,1,13.89-13.27,43.61,43.61,0,0,1,39.7,0A35.58,35.58,0,0,1,411.13,79a36.41,36.41,0,0,1,5,19,36.38,36.38,0,0,1-5,19,35.51,35.51,0,0,1-13.88,13.21,43.52,43.52,0,0,1-39.7,0Zm32.81-10.18a23.43,23.43,0,0,0,9.05-9,27.37,27.37,0,0,0,0-26A23.49,23.49,0,0,0,390.36,76a27.54,27.54,0,0,0-25.92,0A23.43,23.43,0,0,0,355.39,85a27.37,27.37,0,0,0,0,26,23.36,23.36,0,0,0,9.05,9,27.54,27.54,0,0,0,25.92,0Z"/><path class="cls-1" d="M432.94,126.67q-8.34-8.39-8.34-24V62H438v40.12q0,21.18,18.3,21.18t18.21-21.18V62h13.16v40.63q0,15.63-8.28,24t-23.19,8.38Q441.27,135.05,432.94,126.67Z"/><path class="cls-1" d="M501.23,62H532.7a45.15,45.15,0,0,1,20.46,4.48,33.08,33.08,0,0,1,13.89,12.65A35.79,35.79,0,0,1,572,98a35.79,35.79,0,0,1-4.94,18.87,33.1,33.1,0,0,1-13.89,12.66A45.15,45.15,0,0,1,532.7,134H501.23Zm30.85,60.69a30.63,30.63,0,0,0,13.94-3,21.66,21.66,0,0,0,9.25-8.64,25.5,25.5,0,0,0,3.24-13,25.56,25.56,0,0,0-3.24-13A21.66,21.66,0,0,0,546,76.37a30.63,30.63,0,0,0-13.94-3H514.6v49.37Z"/><path class="cls-2" d="M628.14,134l-14.71-21.09a26.36,26.36,0,0,1-2.77.11H594.41v21H581V62h29.62A39.8,39.8,0,0,1,627,65.11,23.76,23.76,0,0,1,637.6,74a24.76,24.76,0,0,1,3.71,13.68,24.47,24.47,0,0,1-4,14A23.55,23.55,0,0,1,626,110.36L642.54,134Zm-4.83-57q-4.53-3.71-13.27-3.7H594.41V102H610q8.75,0,13.27-3.75t4.52-10.65Q627.83,80.75,623.31,77Z"/><path class="cls-2" d="M705.07,122.81V134h-54V62h52.56V73.23H664.45V92h34.76v11H664.45v19.85Z"/><path class="cls-2" d="M760.76,65.11A23.79,23.79,0,0,1,771.41,74a24.76,24.76,0,0,1,3.7,13.68,24.77,24.77,0,0,1-3.7,13.63,23.59,23.59,0,0,1-10.65,8.9,39.77,39.77,0,0,1-16.3,3.08H728.21V134H714.84V62h29.62A39.77,39.77,0,0,1,760.76,65.11Zm-3.65,33.12q4.53-3.7,4.53-10.6T757.11,77q-4.53-3.71-13.26-3.7H728.21v28.59h15.64Q752.58,101.93,757.11,98.23Z"/><polygon class="cls-3" points="169.46 147.22 84.89 196.04 0.32 147.22 35.07 127.15 84.89 155.92 134.71 127.15 169.46 147.22"/><polygon class="cls-4" points="84.89 0 169.46 48.83 134.71 68.89 84.89 40.12 35.07 68.89 0.32 48.83 84.89 0"/><polygon class="cls-5" points="0.32 147.22 0 147.03 0 49.01 0.32 48.83 35.07 68.89 34.75 69.07 34.75 126.97 35.07 127.15 0.32 147.22"/><polygon class="cls-6" points="63.94 85.74 84.57 73.83 105.2 85.74 84.57 97.65 63.94 85.74"/><polygon class="cls-7" points="105.2 85.74 84.57 97.65 84.47 97.59 84.47 98.45 84.47 122.15 84.57 122.21 105.2 110.3 105.52 110.11 105.52 85.93 105.2 85.74"/></g></g></svg>