<svg width="20" height="20" viewBox="0 0 20 20" fill="none" xmlns="http://www.w3.org/2000/svg">
<path d="M17.8915 17.1086C18.1356 17.3527 18.5313 17.3527 18.7754 17.1086C19.0194 16.8645 19.0194 16.4688 18.7754 16.2247L17.8915 17.1086ZM17.5254 14.9747C17.2813 14.7306 16.8856 14.7306 16.6415 14.9747C16.3974 15.2188 16.3974 15.6145 16.6415 15.8586L17.5254 14.9747ZM5.83341 12.2917C6.17859 12.2917 6.45841 12.0118 6.45841 11.6667C6.45841 11.3215 6.17859 11.0417 5.83341 11.0417V12.2917ZM1.66675 11.0417C1.32157 11.0417 1.04175 11.3215 1.04175 11.6667C1.04175 12.0118 1.32157 12.2917 1.66675 12.2917V11.0417ZM5.83341 8.12499C6.17859 8.12499 6.45841 7.84517 6.45841 7.49999C6.45841 7.15482 6.17859 6.87499 5.83341 6.87499V8.12499ZM1.66675 6.87499C1.32157 6.87499 1.04175 7.15482 1.04175 7.49999C1.04175 7.84517 1.32157 8.12499 1.66675 8.12499V6.87499ZM12.5001 3.95833C12.8453 3.95833 13.1251 3.67851 13.1251 3.33333C13.1251 2.98815 12.8453 2.70833 12.5001 2.70833V3.95833ZM1.66675 2.70833C1.32157 2.70833 1.04175 2.98815 1.04175 3.33333C1.04175 3.67851 1.32157 3.95833 1.66675 3.95833V2.70833ZM18.7754 16.2247L17.5254 14.9747L16.6415 15.8586L17.8915 17.1086L18.7754 16.2247ZM17.7084 11.6667C17.7084 14.0829 15.7497 16.0417 13.3334 16.0417V17.2917C16.44 17.2917 18.9584 14.7733 18.9584 11.6667H17.7084ZM13.3334 16.0417C10.9172 16.0417 8.95841 14.0829 8.95841 11.6667H7.70841C7.70841 14.7733 10.2268 17.2917 13.3334 17.2917V16.0417ZM8.95841 11.6667C8.95841 9.25042 10.9172 7.29166 13.3334 7.29166V6.04166C10.2268 6.04166 7.70841 8.56006 7.70841 11.6667H8.95841ZM13.3334 7.29166C15.7497 7.29166 17.7084 9.25042 17.7084 11.6667H18.9584C18.9584 8.56006 16.44 6.04166 13.3334 6.04166V7.29166ZM5.83341 11.0417H1.66675V12.2917H5.83341V11.0417ZM5.83341 6.87499H1.66675V8.12499H5.83341V6.87499ZM12.5001 2.70833H1.66675V3.95833H12.5001V2.70833Z" fill="#FAFBFB"/>
</svg>
