<svg width="20" height="20" viewBox="0 0 20 20" fill="none" xmlns="http://www.w3.org/2000/svg">
<path d="M6.74841 14.3002L6.20714 14.6127C6.34433 14.8503 6.62045 14.9707 6.88791 14.9094L6.74841 14.3002ZM4.24841 9.97009L3.79055 9.54466C3.60378 9.74566 3.56995 10.045 3.70714 10.2826L4.24841 9.97009ZM16.6687 9.81603L17.21 9.50353L16.6687 9.81603ZM15.5973 12.274L15.4578 11.6647L15.5973 12.274ZM13.092 3.62094L12.5507 3.93344L13.092 3.62094ZM10.4276 3.3198L10.8855 3.74523L10.4276 3.3198ZM4.45676 10.3309L3.9155 10.6434H3.9155L4.45676 10.3309ZM6.5401 13.9393L7.08136 13.6268L6.5401 13.9393ZM4.37503 15.1893L4.9163 14.8768L4.37503 15.1893ZM2.2917 11.5809L1.75043 11.8934H1.75043L2.2917 11.5809ZM2.74923 9.87338L2.43673 9.33211L2.74923 9.87338ZM6.08257 15.6469L5.77007 15.1056L6.08257 15.6469ZM12.3414 12.961C12.1688 12.6621 11.7865 12.5596 11.4876 12.7322C11.1887 12.9048 11.0863 13.2871 11.2588 13.586L12.3414 12.961ZM13.5892 16.3724L14.1305 16.0599L14.1305 16.0599L13.5892 16.3724ZM11.4242 17.6224L11.9654 17.3099L11.4242 17.6224ZM9.75415 13.4798C9.58156 13.1809 9.19932 13.0785 8.90038 13.2511C8.60145 13.4236 8.49903 13.8059 8.67162 14.1048L9.75415 13.4798ZM13.1317 18.0799L12.8192 17.5386L13.1317 18.0799ZM15.6082 3.86333C15.5189 4.19674 15.7168 4.53946 16.0502 4.62879C16.3836 4.71813 16.7263 4.52027 16.8156 4.18685L15.6082 3.86333ZM17.1207 3.0485C17.21 2.71508 17.0121 2.37237 16.6787 2.28303C16.3453 2.19369 16.0026 2.39156 15.9132 2.72497L17.1207 3.0485ZM18.0404 6.30815C17.7069 6.21881 17.3642 6.41667 17.2749 6.75009C17.1856 7.08351 17.3834 7.42622 17.7168 7.51556L18.0404 6.30815ZM18.8552 7.82058C19.1886 7.90991 19.5313 7.71205 19.6207 7.37863C19.71 7.04522 19.5121 6.70251 19.1787 6.61317L18.8552 7.82058ZM12.5507 3.93344L16.1274 10.1285L17.21 9.50353L13.6332 3.30844L12.5507 3.93344ZM15.4578 11.6647L6.6089 13.691L6.88791 14.9094L15.7368 12.8832L15.4578 11.6647ZM7.28967 13.9877L4.78967 9.65759L3.70714 10.2826L6.20714 14.6127L7.28967 13.9877ZM4.70627 10.3955L10.8855 3.74523L9.96979 2.89437L3.79055 9.54466L4.70627 10.3955ZM16.1274 10.1285C16.4779 10.7355 16.141 11.5083 15.4578 11.6647L15.7368 12.8832C17.2398 12.5391 17.9809 10.8388 17.21 9.50353L16.1274 10.1285ZM13.6332 3.30844C12.8623 1.97316 11.0193 1.76485 9.96979 2.89437L10.8855 3.74523C11.3626 3.23181 12.2003 3.3265 12.5507 3.93344L13.6332 3.30844ZM3.9155 10.6434L5.99883 14.2518L7.08136 13.6268L4.99803 10.0184L3.9155 10.6434ZM4.9163 14.8768L2.83297 11.2684L1.75043 11.8934L3.83377 15.5018L4.9163 14.8768ZM2.83297 11.2684C2.66038 10.9695 2.7628 10.5872 3.06173 10.4146L2.43673 9.33211C1.53993 9.84988 1.23267 10.9966 1.75043 11.8934L2.83297 11.2684ZM5.77007 15.1056C5.47113 15.2782 5.08889 15.1758 4.9163 14.8768L3.83377 15.5018C4.35153 16.3986 5.49827 16.7059 6.39506 16.1881L5.77007 15.1056ZM5.99883 14.2518C6.17142 14.5508 6.069 14.933 5.77007 15.1056L6.39506 16.1881C7.29186 15.6704 7.59913 14.5236 7.08136 13.6268L5.99883 14.2518ZM4.99803 10.0184C4.48026 9.12161 3.33353 8.81435 2.43673 9.33211L3.06173 10.4146C3.36066 10.2421 3.74291 10.3445 3.9155 10.6434L4.99803 10.0184ZM11.2588 13.586L13.048 16.6849L14.1305 16.0599L12.3414 12.961L11.2588 13.586ZM11.9654 17.3099L9.75415 13.4798L8.67162 14.1048L10.8829 17.9349L11.9654 17.3099ZM12.8192 17.5386C12.5203 17.7112 12.138 17.6088 11.9654 17.3099L10.8829 17.9349C11.4007 18.8317 12.5474 19.1389 13.4442 18.6212L12.8192 17.5386ZM13.048 16.6849C13.2206 16.9838 13.1181 17.3661 12.8192 17.5386L13.4442 18.6212C14.341 18.1034 14.6483 16.9567 14.1305 16.0599L13.048 16.6849ZM16.8156 4.18685L17.1207 3.0485L15.9132 2.72497L15.6082 3.86333L16.8156 4.18685ZM17.7168 7.51556L18.8552 7.82058L19.1787 6.61317L18.0404 6.30815L17.7168 7.51556Z" fill="#FAFBFB"/>
</svg>
