<svg width="20" height="20" viewBox="0 0 20 20" fill="none" xmlns="http://www.w3.org/2000/svg">
<path d="M17.5001 15.625C17.8453 15.625 18.1251 15.3452 18.1251 15C18.1251 14.6548 17.8453 14.375 17.5001 14.375V15.625ZM12.5001 14.375C12.1549 14.375 11.8751 14.6548 11.8751 15C11.8751 15.3452 12.1549 15.625 12.5001 15.625V14.375ZM4.2624 6.26123C3.92129 6.2084 3.60194 6.4421 3.54911 6.78321C3.49628 7.12432 3.72998 7.44368 4.0711 7.4965L4.2624 6.26123ZM7.27466 8.32283C7.5966 8.44733 7.95852 8.28726 8.08301 7.96532C8.20751 7.64337 8.04745 7.28146 7.7255 7.15696L7.27466 8.32283ZM10.6251 5.04447C10.6251 4.6993 10.3453 4.41947 10.0001 4.41947C9.6549 4.41947 9.37508 4.6993 9.37508 5.04447H10.6251ZM10.0001 17.5V18.125C10.3453 18.125 10.6251 17.8452 10.6251 17.5H10.0001ZM3.32869 2.50939L3.39887 1.88835L3.32869 2.50939ZM9.43077 4.52037L9.78943 4.00853L9.78943 4.00853L9.43077 4.52037ZM3.32869 15.3103L3.39887 14.6892H3.39887L3.32869 15.3103ZM9.43077 17.3212L9.78943 16.8094L9.78943 16.8094L9.43077 17.3212ZM16.6715 2.50939L16.6013 1.88835L16.6715 2.50939ZM10.5694 4.52037L10.2107 4.00853V4.00853L10.5694 4.52037ZM17.7084 11.6667C17.7084 12.0118 17.9882 12.2917 18.3334 12.2917C18.6786 12.2917 18.9584 12.0118 18.9584 11.6667H17.7084ZM4.2624 9.59456C3.92129 9.54173 3.60194 9.77543 3.54911 10.1165C3.49628 10.4577 3.72998 10.777 4.0711 10.8298L4.2624 9.59456ZM5.68052 11.1546C6.01521 11.2391 6.35498 11.0362 6.43942 10.7015C6.52387 10.3668 6.321 10.0271 5.98631 9.94262L5.68052 11.1546ZM17.5001 14.375H12.5001V15.625H17.5001V14.375ZM4.0711 7.4965C5.09508 7.65509 6.22579 7.91723 7.27466 8.32283L7.7255 7.15696C6.57067 6.71039 5.34805 6.42936 4.2624 6.26123L4.0711 7.4965ZM9.37508 5.04447V17.5H10.6251V5.04447H9.37508ZM3.25851 3.13044C5.07214 3.33538 7.43073 3.88206 9.07211 5.03222L9.78943 4.00853C7.89131 2.67847 5.28254 2.1012 3.39887 1.88835L3.25851 3.13044ZM3.25851 15.9313C5.07214 16.1363 7.43073 16.6829 9.07211 17.8331L9.78943 16.8094C7.89131 15.4793 5.28254 14.9021 3.39887 14.6892L3.25851 15.9313ZM1.04175 4.11265V13.5H2.29175V4.11265H1.04175ZM3.39887 14.6892C2.77405 14.6186 2.29175 14.0992 2.29175 13.5H1.04175C1.04175 14.786 2.05348 15.7951 3.25851 15.9313L3.39887 14.6892ZM3.39887 1.88835C2.05553 1.73655 1.04175 2.85774 1.04175 4.11265H2.29175C2.29175 3.4823 2.77201 3.07547 3.25851 3.13044L3.39887 1.88835ZM16.6013 1.88835C14.7176 2.1012 12.1088 2.67847 10.2107 4.00853L10.9281 5.03222C12.5694 3.88206 14.928 3.33538 16.7417 3.13044L16.6013 1.88835ZM17.7084 4.11265V11.6667H18.9584V4.11265H17.7084ZM16.7417 3.13044C17.2282 3.07547 17.7084 3.4823 17.7084 4.11265H18.9584C18.9584 2.85774 17.9446 1.73655 16.6013 1.88835L16.7417 3.13044ZM9.0721 5.03222C9.62754 5.42143 10.3726 5.42143 10.9281 5.03222L10.2107 4.00853C10.0859 4.09599 9.91425 4.09599 9.78943 4.00853L9.0721 5.03222ZM9.0721 17.8331C9.35085 18.0284 9.67656 18.125 10.0001 18.125V16.875C9.92435 16.875 9.85082 16.8524 9.78943 16.8094L9.0721 17.8331ZM4.0711 10.8298C4.58713 10.9098 5.13186 11.0162 5.68052 11.1546L5.98631 9.94262C5.39547 9.79355 4.81218 9.67971 4.2624 9.59456L4.0711 10.8298Z" fill="#D4D9DC"/>
</svg>
