<svg width="20" height="20" viewBox="0 0 20 20" fill="none" xmlns="http://www.w3.org/2000/svg">
<path d="M15.3333 6.00006L15.833 5.62468L15.3333 6.00006ZM11.3335 8.99994L10.8338 9.37532L11.3335 8.99994ZM8.66667 11.0001L9.16638 10.6247L8.66667 11.0001ZM4.66683 13.9999L4.16711 14.3753L4.66683 13.9999ZM17.7084 5C17.7084 5.5753 17.242 6.04167 16.6667 6.04167V7.29167C17.9324 7.29167 18.9584 6.26565 18.9584 5H17.7084ZM15.6251 5C15.6251 4.4247 16.0915 3.95833 16.6667 3.95833V2.70833C15.4011 2.70833 14.3751 3.73435 14.3751 5H15.6251ZM16.6667 3.95833C17.242 3.95833 17.7084 4.4247 17.7084 5H18.9584C18.9584 3.73435 17.9324 2.70833 16.6667 2.70833V3.95833ZM11.0417 10C11.0417 10.5753 10.5754 11.0417 10.0001 11.0417V12.2917C11.2657 12.2917 12.2917 11.2657 12.2917 10H11.0417ZM8.95841 10C8.95841 9.4247 9.42478 8.95833 10.0001 8.95833V7.70833C8.73443 7.70833 7.70841 8.73435 7.70841 10H8.95841ZM4.37508 15C4.37508 15.5753 3.90871 16.0417 3.33341 16.0417V17.2917C4.59907 17.2917 5.62508 16.2657 5.62508 15H4.37508ZM3.33341 16.0417C2.75812 16.0417 2.29175 15.5753 2.29175 15H1.04175C1.04175 16.2657 2.06776 17.2917 3.33341 17.2917V16.0417ZM2.29175 15C2.29175 14.4247 2.75812 13.9583 3.33341 13.9583V12.7083C2.06776 12.7083 1.04175 13.7343 1.04175 15H2.29175ZM16.6667 6.04167C16.3264 6.04167 16.0242 5.87907 15.833 5.62468L14.8336 6.37544C15.2507 6.93061 15.9166 7.29167 16.6667 7.29167V6.04167ZM15.833 5.62468C15.7023 5.45063 15.6251 5.23524 15.6251 5H14.3751C14.3751 5.51522 14.5459 5.99236 14.8336 6.37544L15.833 5.62468ZM14.9583 5.50006L10.9585 8.49994L11.7085 9.49994L15.7083 6.50006L14.9583 5.50006ZM10.0001 8.95833C10.3405 8.95833 10.6427 9.12093 10.8338 9.37532L11.8332 8.62456C11.4162 8.06939 10.7502 7.70833 10.0001 7.70833V8.95833ZM10.8338 9.37532C10.9645 9.54937 11.0417 9.76476 11.0417 10H12.2917C12.2917 9.48478 12.121 9.00764 11.8332 8.62456L10.8338 9.37532ZM10.0001 11.0417C9.65971 11.0417 9.35749 10.8791 9.16638 10.6247L8.16696 11.3754C8.584 11.9306 9.24996 12.2917 10.0001 12.2917V11.0417ZM9.16638 10.6247C9.03564 10.4506 8.95841 10.2352 8.95841 10H7.70841C7.70841 10.5152 7.87919 10.9924 8.16696 11.3754L9.16638 10.6247ZM8.29167 10.5001L4.29183 13.4999L5.04183 14.4999L9.04167 11.5001L8.29167 10.5001ZM3.33341 13.9583C3.67379 13.9583 3.97601 14.1209 4.16711 14.3753L5.16654 13.6246C4.7495 13.0694 4.08353 12.7083 3.33341 12.7083V13.9583ZM4.16711 14.3753C4.29785 14.5494 4.37508 14.7648 4.37508 15H5.62508C5.62508 14.4848 5.45431 14.0076 5.16654 13.6246L4.16711 14.3753Z" fill="#D4D9DC"/>
</svg>
