<svg width="20" height="20" viewBox="0 0 20 20" fill="none" xmlns="http://www.w3.org/2000/svg">
<path d="M2.5 3.54167C2.15482 3.54167 1.875 3.82149 1.875 4.16667C1.875 4.51184 2.15482 4.79167 2.5 4.79167V3.54167ZM2.5 9.375C2.15482 9.375 1.875 9.65482 1.875 10C1.875 10.3452 2.15482 10.625 2.5 10.625V9.375ZM10 10.625C10.3452 10.625 10.625 10.3452 10.625 10C10.625 9.65482 10.3452 9.375 10 9.375V10.625ZM17.5 10.625C17.8452 10.625 18.125 10.3452 18.125 10C18.125 9.65482 17.8452 9.375 17.5 9.375V10.625ZM17.5 4.79167C17.8452 4.79167 18.125 4.51184 18.125 4.16667C18.125 3.82149 17.8452 3.54167 17.5 3.54167V4.79167ZM10 15.2083C9.65482 15.2083 9.375 15.4882 9.375 15.8333C9.375 16.1785 9.65482 16.4583 10 16.4583V15.2083ZM17.5 16.4583C17.8452 16.4583 18.125 16.1785 18.125 15.8333C18.125 15.4882 17.8452 15.2083 17.5 15.2083V16.4583ZM2.5 15.2083C2.15482 15.2083 1.875 15.4882 1.875 15.8333C1.875 16.1785 2.15482 16.4583 2.5 16.4583V15.2083ZM2.5 4.79167H8.33333V3.54167H2.5V4.79167ZM2.5 10.625H10V9.375H2.5V10.625ZM15.8333 10.625H17.5V9.375H15.8333V10.625ZM11.6667 4.79167H17.5V3.54167H11.6667V4.79167ZM10 16.4583H17.5V15.2083H10V16.4583ZM2.5 16.4583H4.16667V15.2083H2.5V16.4583ZM6.875 15.8333C6.875 16.4086 6.40863 16.875 5.83333 16.875V18.125C7.09899 18.125 8.125 17.099 8.125 15.8333H6.875ZM5.83333 16.875C5.25804 16.875 4.79167 16.4086 4.79167 15.8333H3.54167C3.54167 17.099 4.56768 18.125 5.83333 18.125V16.875ZM4.79167 15.8333C4.79167 15.258 5.25804 14.7917 5.83333 14.7917V13.5417C4.56768 13.5417 3.54167 14.5677 3.54167 15.8333H4.79167ZM5.83333 14.7917C6.40863 14.7917 6.875 15.258 6.875 15.8333H8.125C8.125 14.5677 7.09899 13.5417 5.83333 13.5417V14.7917ZM15.2083 10C15.2083 10.5753 14.742 11.0417 14.1667 11.0417V12.2917C15.4323 12.2917 16.4583 11.2657 16.4583 10H15.2083ZM14.1667 11.0417C13.5914 11.0417 13.125 10.5753 13.125 10H11.875C11.875 11.2657 12.901 12.2917 14.1667 12.2917V11.0417ZM13.125 10C13.125 9.4247 13.5914 8.95833 14.1667 8.95833V7.70833C12.901 7.70833 11.875 8.73435 11.875 10H13.125ZM14.1667 8.95833C14.742 8.95833 15.2083 9.4247 15.2083 10H16.4583C16.4583 8.73435 15.4323 7.70833 14.1667 7.70833V8.95833ZM11.0417 4.16667C11.0417 4.74196 10.5753 5.20833 10 5.20833V6.45833C11.2657 6.45833 12.2917 5.43232 12.2917 4.16667H11.0417ZM10 5.20833C9.4247 5.20833 8.95833 4.74196 8.95833 4.16667H7.70833C7.70833 5.43232 8.73435 6.45833 10 6.45833V5.20833ZM8.95833 4.16667C8.95833 3.59137 9.4247 3.125 10 3.125V1.875C8.73435 1.875 7.70833 2.90101 7.70833 4.16667H8.95833ZM10 3.125C10.5753 3.125 11.0417 3.59137 11.0417 4.16667H12.2917C12.2917 2.90101 11.2657 1.875 10 1.875V3.125Z" fill="#D4D9DC"/>
</svg>
