<svg width="20" height="20" viewBox="0 0 20 20" fill="none" xmlns="http://www.w3.org/2000/svg">
<path d="M7.29175 1.66666C7.29175 1.32148 7.01193 1.04166 6.66675 1.04166C6.32157 1.04166 6.04175 1.32148 6.04175 1.66666H7.29175ZM6.04175 18.3333C6.04175 18.6785 6.32157 18.9583 6.66675 18.9583C7.01193 18.9583 7.29175 18.6785 7.29175 18.3333H6.04175ZM5.00008 2.29166H15.0001V1.04166H5.00008V2.29166ZM17.7084 4.99999V15H18.9584V4.99999H17.7084ZM15.0001 17.7083H5.00008V18.9583H15.0001V17.7083ZM2.29175 15V4.99999H1.04175V15H2.29175ZM5.00008 17.7083C3.50431 17.7083 2.29175 16.4958 2.29175 15H1.04175C1.04175 17.1861 2.81395 18.9583 5.00008 18.9583V17.7083ZM17.7084 15C17.7084 16.4958 16.4959 17.7083 15.0001 17.7083V18.9583C17.1862 18.9583 18.9584 17.1861 18.9584 15H17.7084ZM15.0001 2.29166C16.4959 2.29166 17.7084 3.50422 17.7084 4.99999H18.9584C18.9584 2.81386 17.1862 1.04166 15.0001 1.04166V2.29166ZM5.00008 1.04166C2.81395 1.04166 1.04175 2.81386 1.04175 4.99999H2.29175C2.29175 3.50422 3.50431 2.29166 5.00008 2.29166V1.04166ZM6.04175 1.66666V18.3333H7.29175V1.66666H6.04175Z" fill="#D4D9DC"/>
</svg>
