<svg width="20" height="20" viewBox="0 0 20 20" fill="none" xmlns="http://www.w3.org/2000/svg">
<path d="M8.33341 4.375C7.98824 4.375 7.70841 4.65482 7.70841 5C7.70841 5.34518 7.98824 5.625 8.33341 5.625V4.375ZM13.3334 5.625C13.6786 5.625 13.9584 5.34518 13.9584 5C13.9584 4.65482 13.6786 4.375 13.3334 4.375V5.625ZM8.33341 11.0417C7.98824 11.0417 7.70841 11.3215 7.70841 11.6667C7.70841 12.0118 7.98824 12.2917 8.33341 12.2917V11.0417ZM13.3334 12.2917C13.6786 12.2917 13.9584 12.0118 13.9584 11.6667C13.9584 11.3215 13.6786 11.0417 13.3334 11.0417V12.2917ZM8.33341 7.70833C7.98824 7.70833 7.70841 7.98816 7.70841 8.33333C7.70841 8.67851 7.98824 8.95833 8.33341 8.95833V7.70833ZM18.3334 8.95833C18.6786 8.95833 18.9584 8.67851 18.9584 8.33333C18.9584 7.98816 18.6786 7.70833 18.3334 7.70833V8.95833ZM8.33341 14.375C7.98824 14.375 7.70841 14.6548 7.70841 15C7.70841 15.3452 7.98824 15.625 8.33341 15.625V14.375ZM18.3334 15.625C18.6786 15.625 18.9584 15.3452 18.9584 15C18.9584 14.6548 18.6786 14.375 18.3334 14.375V15.625ZM3.33341 7.70833C2.75812 7.70833 2.29175 7.24196 2.29175 6.66667H1.04175C1.04175 7.93232 2.06776 8.95833 3.33341 8.95833L3.33341 7.70833ZM2.29175 6.66667C2.29175 6.09137 2.75812 5.625 3.33341 5.625V4.375C2.06776 4.375 1.04175 5.40101 1.04175 6.66667H2.29175ZM3.33341 5.625C3.90871 5.625 4.37508 6.09137 4.37508 6.66667H5.62508C5.62508 5.40101 4.59907 4.375 3.33341 4.375V5.625ZM4.37508 6.66667C4.37508 7.24196 3.90871 7.70833 3.33341 7.70833L3.33341 8.95833C4.59907 8.95833 5.62508 7.93232 5.62508 6.66667H4.37508ZM3.33341 14.375C2.75812 14.375 2.29175 13.9086 2.29175 13.3333H1.04175C1.04175 14.599 2.06776 15.625 3.33341 15.625L3.33341 14.375ZM2.29175 13.3333C2.29175 12.758 2.75812 12.2917 3.33341 12.2917V11.0417C2.06776 11.0417 1.04175 12.0677 1.04175 13.3333H2.29175ZM3.33341 12.2917C3.90871 12.2917 4.37508 12.758 4.37508 13.3333H5.62508C5.62508 12.0677 4.59907 11.0417 3.33341 11.0417V12.2917ZM4.37508 13.3333C4.37508 13.9086 3.90871 14.375 3.33341 14.375L3.33341 15.625C4.59907 15.625 5.62508 14.599 5.62508 13.3333H4.37508ZM8.33341 5.625H13.3334V4.375H8.33341V5.625ZM8.33341 12.2917H13.3334V11.0417H8.33341V12.2917ZM8.33341 8.95833H18.3334V7.70833H8.33341V8.95833ZM8.33341 15.625H18.3334V14.375H8.33341V15.625Z" fill="#FAFBFB"/>
</svg>
