<svg width="20" height="20" viewBox="0 0 20 20" fill="none" xmlns="http://www.w3.org/2000/svg">
<path d="M15.7421 6.3869L16.0893 5.86718L15.7421 6.3869ZM10.9247 13.6131L10.5775 14.1328L10.9247 13.6131ZM8.66667 13.9999L9.16638 14.3753L8.66667 13.9999ZM4.66683 11.0001L4.16711 10.6247L4.66683 11.0001ZM3.33341 11.0417C2.75812 11.0417 2.29175 10.5753 2.29175 10H1.04175C1.04175 11.2657 2.06776 12.2917 3.33341 12.2917V11.0417ZM2.29175 10C2.29175 9.4247 2.75812 8.95833 3.33341 8.95833V7.70833C2.06776 7.70833 1.04175 8.73435 1.04175 10H2.29175ZM3.33341 8.95833C3.90871 8.95833 4.37508 9.4247 4.37508 10H5.62508C5.62508 8.73435 4.59907 7.70833 3.33341 7.70833V8.95833ZM11.0417 15C11.0417 15.5753 10.5754 16.0417 10.0001 16.0417V17.2917C11.2657 17.2917 12.2917 16.2657 12.2917 15H11.0417ZM10.0001 16.0417C9.42478 16.0417 8.95841 15.5753 8.95841 15H7.70841C7.70841 16.2657 8.73443 17.2917 10.0001 17.2917V16.0417ZM17.7084 5C17.7084 5.5753 17.242 6.04167 16.6667 6.04167V7.29167C17.9324 7.29167 18.9584 6.26565 18.9584 5H17.7084ZM15.6251 5C15.6251 4.4247 16.0915 3.95833 16.6667 3.95833V2.70833C15.4011 2.70833 14.3751 3.73435 14.3751 5H15.6251ZM16.6667 3.95833C17.242 3.95833 17.7084 4.4247 17.7084 5H18.9584C18.9584 3.73435 17.9324 2.70833 16.6667 2.70833V3.95833ZM16.6667 6.04167C16.4521 6.04167 16.2543 5.97741 16.0893 5.86718L15.395 6.90661C15.7591 7.14985 16.1973 7.29167 16.6667 7.29167V6.04167ZM16.0893 5.86718C15.8081 5.67934 15.6251 5.36092 15.6251 5H14.3751C14.3751 5.79594 14.7814 6.49672 15.395 6.90661L16.0893 5.86718ZM11.4447 13.9598L16.2622 6.73358L15.2221 6.04021L10.4046 13.2664L11.4447 13.9598ZM10.0001 13.9583C10.2147 13.9583 10.4125 14.0226 10.5775 14.1328L11.2718 13.0934C10.9077 12.8501 10.4695 12.7083 10.0001 12.7083V13.9583ZM10.5775 14.1328C10.8587 14.3207 11.0417 14.6391 11.0417 15H12.2917C12.2917 14.2041 11.8855 13.5033 11.2718 13.0934L10.5775 14.1328ZM8.95841 15C8.95841 14.7648 9.03564 14.5494 9.16638 14.3753L8.16696 13.6246C7.87919 14.0076 7.70841 14.4848 7.70841 15H8.95841ZM9.16638 14.3753C9.35749 14.1209 9.65971 13.9583 10.0001 13.9583V12.7083C9.24996 12.7083 8.584 13.0694 8.16696 13.6246L9.16638 14.3753ZM9.04167 13.4999L5.04183 10.5001L4.29183 11.5001L8.29167 14.4999L9.04167 13.4999ZM4.37508 10C4.37508 10.2352 4.29785 10.4506 4.16711 10.6247L5.16654 11.3754C5.45431 10.9924 5.62508 10.5152 5.62508 10H4.37508ZM4.16711 10.6247C3.97601 10.8791 3.67379 11.0417 3.33341 11.0417V12.2917C4.08353 12.2917 4.7495 11.9306 5.16654 11.3754L4.16711 10.6247Z" fill="#FAFBFB"/>
</svg>
