<svg width="20" height="20" viewBox="0 0 20 20" fill="none" xmlns="http://www.w3.org/2000/svg">
<path d="M10.6251 5.0445C10.6251 4.69933 10.3453 4.4195 10.0001 4.4195C9.6549 4.4195 9.37508 4.69933 9.37508 5.0445H10.6251ZM9.37508 16.9188C9.37508 17.2639 9.6549 17.5438 10.0001 17.5438C10.3453 17.5438 10.6251 17.2639 10.6251 16.9188H9.37508ZM3.32869 2.50942L3.39887 1.88838L3.32869 2.50942ZM9.43077 4.5204L9.78943 4.00856L9.78943 4.00856L9.43077 4.5204ZM3.32869 15.3103L3.39887 14.6893L3.32869 15.3103ZM9.43077 17.3213L9.78943 16.8094H9.78943L9.43077 17.3213ZM16.6715 2.50942L16.6013 1.88838L16.6715 2.50942ZM10.5694 4.5204L10.2107 4.00856V4.00856L10.5694 4.5204ZM16.6715 15.3103L16.6013 14.6893L16.6715 15.3103ZM10.5694 17.3213L10.2107 16.8094H10.2107L10.5694 17.3213ZM4.2624 6.26126C3.92129 6.20843 3.60194 6.44213 3.54911 6.78324C3.49628 7.12435 3.72998 7.44371 4.0711 7.49653L4.2624 6.26126ZM7.27466 8.32286C7.5966 8.44736 7.95852 8.28729 8.08301 7.96535C8.20751 7.6434 8.04745 7.28149 7.7255 7.15699L7.27466 8.32286ZM4.2624 9.59459C3.92129 9.54176 3.60194 9.77547 3.54911 10.1166C3.49628 10.4577 3.72998 10.777 4.0711 10.8299L4.2624 9.59459ZM5.68052 11.1547C6.01521 11.2391 6.35498 11.0362 6.43942 10.7016C6.52387 10.3669 6.321 10.0271 5.98631 9.94265L5.68052 11.1547ZM9.37508 5.0445V16.9188H10.6251V5.0445H9.37508ZM3.25851 3.13047C5.07214 3.33541 7.43073 3.88209 9.07211 5.03225L9.78943 4.00856C7.89131 2.6785 5.28254 2.10123 3.39887 1.88838L3.25851 3.13047ZM3.25851 15.9313C5.07214 16.1363 7.43073 16.683 9.07211 17.8331L9.78943 16.8094C7.89131 15.4794 5.28254 14.9021 3.39887 14.6893L3.25851 15.9313ZM1.04175 4.11268V13.5H2.29175V4.11268H1.04175ZM3.39887 14.6893C2.77405 14.6186 2.29175 14.0992 2.29175 13.5H1.04175C1.04175 14.786 2.05348 15.7952 3.25851 15.9313L3.39887 14.6893ZM3.39887 1.88838C2.05553 1.73658 1.04175 2.85777 1.04175 4.11268H2.29175C2.29175 3.48233 2.77201 3.0755 3.25851 3.13047L3.39887 1.88838ZM16.6013 1.88838C14.7176 2.10123 12.1088 2.6785 10.2107 4.00856L10.9281 5.03225C12.5694 3.88209 14.928 3.33541 16.7417 3.13047L16.6013 1.88838ZM16.6013 14.6893C14.7176 14.9021 12.1088 15.4794 10.2107 16.8094L10.9281 17.8331C12.5694 16.683 14.928 16.1363 16.7417 15.9313L16.6013 14.6893ZM17.7084 4.11268V13.5H18.9584V4.11268H17.7084ZM16.7417 15.9313C17.9467 15.7952 18.9584 14.786 18.9584 13.5H17.7084C17.7084 14.0992 17.2261 14.6186 16.6013 14.6893L16.7417 15.9313ZM16.7417 3.13047C17.2282 3.0755 17.7084 3.48233 17.7084 4.11268H18.9584C18.9584 2.85777 17.9446 1.73658 16.6013 1.88838L16.7417 3.13047ZM9.0721 17.8331C9.62754 18.2223 10.3726 18.2223 10.9281 17.8331L10.2107 16.8094C10.0859 16.8969 9.91425 16.8969 9.78943 16.8094L9.0721 17.8331ZM9.07211 5.03225C9.62754 5.42146 10.3726 5.42146 10.9281 5.03225L10.2107 4.00856C10.0859 4.09602 9.91425 4.09602 9.78943 4.00856L9.07211 5.03225ZM4.0711 7.49653C5.09508 7.65512 6.22579 7.91726 7.27466 8.32286L7.7255 7.15699C6.57067 6.71042 5.34805 6.42939 4.2624 6.26126L4.0711 7.49653ZM4.0711 10.8299C4.58713 10.9098 5.13186 11.0162 5.68052 11.1547L5.98631 9.94265C5.39547 9.79358 4.81218 9.67974 4.2624 9.59459L4.0711 10.8299Z" fill="#FAFBFB"/>
</svg>
