<svg width="20" height="20" viewBox="0 0 20 20" fill="none" xmlns="http://www.w3.org/2000/svg">
<path d="M10.0001 4.16667H10.6251C10.6251 3.95006 10.5129 3.74889 10.3287 3.63501C10.1444 3.52113 9.91432 3.51078 9.72057 3.60765L10.0001 4.16667ZM9.37508 7.5C9.37508 7.84518 9.6549 8.125 10.0001 8.125C10.3453 8.125 10.6251 7.84518 10.6251 7.5H9.37508ZM8.88724 4.02432C8.5785 4.17869 8.45336 4.55411 8.60773 4.86284C8.7621 5.17158 9.13752 5.29672 9.44626 5.14235L8.88724 4.02432ZM9.16675 6.875C8.82157 6.875 8.54175 7.15482 8.54175 7.5C8.54175 7.84518 8.82157 8.125 9.16675 8.125V6.875ZM10.8334 8.125C11.1786 8.125 11.4584 7.84518 11.4584 7.5C11.4584 7.15482 11.1786 6.875 10.8334 6.875V8.125ZM3.33341 10.625H8.33341V9.375H3.33341V10.625ZM9.37508 11.6667V16.6667H10.6251V11.6667H9.37508ZM8.33341 17.7083H3.33341V18.9583H8.33341V17.7083ZM2.29175 16.6667V11.6667H1.04175V16.6667H2.29175ZM3.33341 17.7083C2.75812 17.7083 2.29175 17.242 2.29175 16.6667H1.04175C1.04175 17.9323 2.06776 18.9583 3.33341 18.9583V17.7083ZM9.37508 16.6667C9.37508 17.242 8.90871 17.7083 8.33341 17.7083V18.9583C9.59907 18.9583 10.6251 17.9323 10.6251 16.6667H9.37508ZM8.33341 10.625C8.90871 10.625 9.37508 11.0914 9.37508 11.6667H10.6251C10.6251 10.401 9.59907 9.375 8.33341 9.375V10.625ZM3.33341 9.375C2.06776 9.375 1.04175 10.401 1.04175 11.6667H2.29175C2.29175 11.0914 2.75812 10.625 3.33341 10.625V9.375ZM11.6667 10.625H16.6667V9.375H11.6667V10.625ZM17.7084 11.6667V16.6667H18.9584V11.6667H17.7084ZM16.6667 17.7083H11.6667V18.9583H16.6667V17.7083ZM11.6667 17.7083C11.0915 17.7083 10.6251 17.242 10.6251 16.6667H9.37508C9.37508 17.9323 10.4011 18.9583 11.6667 18.9583V17.7083ZM17.7084 16.6667C17.7084 17.242 17.242 17.7083 16.6667 17.7083V18.9583C17.9324 18.9583 18.9584 17.9323 18.9584 16.6667H17.7084ZM16.6667 10.625C17.242 10.625 17.7084 11.0914 17.7084 11.6667H18.9584C18.9584 10.401 17.9324 9.375 16.6667 9.375V10.625ZM11.6667 9.375C10.4011 9.375 9.37508 10.401 9.37508 11.6667H10.6251C10.6251 11.0914 11.0915 10.625 11.6667 10.625V9.375ZM7.50008 2.29167H12.5001V1.04167H7.50008V2.29167ZM13.5417 3.33333V8.33333H14.7917V3.33333H13.5417ZM12.5001 9.375H7.50008V10.625H12.5001V9.375ZM6.45841 8.33333V3.33333H5.20841V8.33333H6.45841ZM7.50008 9.375C6.92478 9.375 6.45841 8.90863 6.45841 8.33333H5.20841C5.20841 9.59899 6.23443 10.625 7.50008 10.625V9.375ZM13.5417 8.33333C13.5417 8.90863 13.0754 9.375 12.5001 9.375V10.625C13.7657 10.625 14.7917 9.59899 14.7917 8.33333H13.5417ZM12.5001 2.29167C13.0754 2.29167 13.5417 2.75804 13.5417 3.33333H14.7917C14.7917 2.06768 13.7657 1.04167 12.5001 1.04167V2.29167ZM7.50008 1.04167C6.23443 1.04167 5.20841 2.06768 5.20841 3.33333H6.45841C6.45841 2.75804 6.92478 2.29167 7.50008 2.29167V1.04167ZM9.37508 4.16667V7.5H10.6251V4.16667H9.37508ZM9.72057 3.60765L8.88724 4.02432L9.44626 5.14235L10.2796 4.72568L9.72057 3.60765ZM9.16675 8.125H10.8334V6.875H9.16675V8.125Z" fill="#D4D9DC"/>
</svg>
