<svg width="20" height="20" viewBox="0 0 20 20" fill="none" xmlns="http://www.w3.org/2000/svg">
<path d="M13.9584 1.66666C13.9584 1.32148 13.6786 1.04166 13.3334 1.04166C12.9882 1.04166 12.7084 1.32148 12.7084 1.66666H13.9584ZM12.7084 18.3333C12.7084 18.6785 12.9882 18.9583 13.3334 18.9583C13.6786 18.9583 13.9584 18.6785 13.9584 18.3333H12.7084ZM15.0001 1.04166H5.00008V2.29166H15.0001V1.04166ZM1.04175 4.99999V15H2.29175V4.99999H1.04175ZM5.00008 18.9583H15.0001V17.7083H5.00008V18.9583ZM18.9584 15V4.99999H17.7084V15H18.9584ZM15.0001 18.9583C17.1862 18.9583 18.9584 17.1861 18.9584 15H17.7084C17.7084 16.4958 16.4959 17.7083 15.0001 17.7083V18.9583ZM1.04175 15C1.04175 17.1861 2.81395 18.9583 5.00008 18.9583V17.7083C3.50431 17.7083 2.29175 16.4958 2.29175 15H1.04175ZM5.00008 1.04166C2.81395 1.04166 1.04175 2.81386 1.04175 4.99999H2.29175C2.29175 3.50422 3.50431 2.29166 5.00008 2.29166V1.04166ZM15.0001 2.29166C16.4959 2.29166 17.7084 3.50422 17.7084 4.99999H18.9584C18.9584 2.81386 17.1862 1.04166 15.0001 1.04166V2.29166ZM12.7084 1.66666V18.3333H13.9584V1.66666H12.7084Z" fill="#D4D9DC"/>
</svg>
