<svg width="20" height="20" viewBox="0 0 20 20" fill="none" xmlns="http://www.w3.org/2000/svg">
<path fill-rule="evenodd" clip-rule="evenodd" d="M5 4.375C4.65482 4.375 4.375 4.65482 4.375 5C4.375 5.34518 4.65482 5.625 5 5.625H15C15.3452 5.625 15.625 5.34518 15.625 5C15.625 4.65482 15.3452 4.375 15 4.375H5ZM5 7.70833C4.65482 7.70833 4.375 7.98816 4.375 8.33333C4.375 8.67851 4.65482 8.95833 5 8.95833H15C15.3452 8.95833 15.625 8.67851 15.625 8.33333C15.625 7.98816 15.3452 7.70833 15 7.70833H5ZM4.375 11.6667C4.375 11.3215 4.65482 11.0417 5 11.0417H15C15.3452 11.0417 15.625 11.3215 15.625 11.6667C15.625 12.0118 15.3452 12.2917 15 12.2917H5C4.65482 12.2917 4.375 12.0118 4.375 11.6667ZM5 14.375C4.65482 14.375 4.375 14.6548 4.375 15C4.375 15.3452 4.65482 15.625 5 15.625H10C10.3452 15.625 10.625 15.3452 10.625 15C10.625 14.6548 10.3452 14.375 10 14.375H5Z" fill="#D4D9DC"/>
</svg>
