<svg width="20" height="20" viewBox="0 0 20 20" fill="none" xmlns="http://www.w3.org/2000/svg">
<ellipse cx="10" cy="13.75" rx="5" ry="2.08333" stroke="#FAFBFB" stroke-width="1.25" stroke-linejoin="round"/>
<circle cx="10" cy="6.66666" r="2.5" stroke="#FAFBFB" stroke-width="1.25" stroke-linejoin="round"/>
<path fill-rule="evenodd" clip-rule="evenodd" d="M5.3713 11.0512C4.33916 11.0942 3.39103 11.2801 2.65502 11.5745C2.23443 11.7428 1.85212 11.9587 1.56474 12.2305C1.27604 12.5035 1.04175 12.876 1.04175 13.3333C1.04175 13.7907 1.27604 14.1632 1.56474 14.4362C1.85212 14.708 2.23443 14.9239 2.65502 15.0921C3.07151 15.2587 3.55593 15.3906 4.08505 15.4815C3.6737 15.0378 3.41551 14.5419 3.34996 14.0163C3.26959 13.9892 3.19261 13.9609 3.11926 13.9316C2.78582 13.7982 2.55794 13.655 2.42363 13.528C2.29158 13.4031 2.29174 13.3372 2.29175 13.3334L2.29175 13.3333L2.29175 13.3333C2.29174 13.3295 2.29158 13.2636 2.42363 13.1387C2.55794 13.0117 2.78582 12.8685 3.11926 12.7351C3.28839 12.6675 3.47675 12.6055 3.68164 12.5507C4.02639 11.9758 4.61214 11.4633 5.3713 11.0512Z" fill="#FAFBFB"/>
<path fill-rule="evenodd" clip-rule="evenodd" d="M16.6503 14.0163C16.5847 14.5419 16.3265 15.0378 15.9152 15.4815C16.4443 15.3906 16.9287 15.2587 17.3452 15.0921C17.7658 14.9239 18.1481 14.708 18.4355 14.4362C18.7242 14.1632 18.9585 13.7907 18.9585 13.3333C18.9585 12.876 18.7242 12.5035 18.4355 12.2305C18.1481 11.9587 17.7658 11.7428 17.3452 11.5745C16.6092 11.2801 15.6611 11.0942 14.6289 11.0512C15.3881 11.4633 15.9738 11.9758 16.3186 12.5507C16.5235 12.6055 16.7118 12.6675 16.881 12.7351C17.2144 12.8685 17.4423 13.0117 17.5766 13.1387C17.7086 13.2636 17.7085 13.3295 17.7085 13.3333V13.3333V13.3334C17.7085 13.3372 17.7086 13.4031 17.5766 13.528C17.4423 13.655 17.2144 13.7982 16.881 13.9316C16.8076 13.9609 16.7306 13.9892 16.6503 14.0163Z" fill="#FAFBFB"/>
<path fill-rule="evenodd" clip-rule="evenodd" d="M13.7619 8.46015C13.5787 8.84383 13.3385 9.19509 13.0522 9.50298C13.3821 9.68689 13.7621 9.79168 14.1666 9.79168C15.4322 9.79168 16.4583 8.76566 16.4583 7.50001C16.4583 6.23436 15.4322 5.20834 14.1666 5.20834C14.0797 5.20834 13.9939 5.21318 13.9096 5.2226C14.0529 5.61061 14.1402 6.02581 14.1615 6.45836C14.1632 6.45835 14.1649 6.45834 14.1666 6.45834C14.7419 6.45834 15.2083 6.92471 15.2083 7.50001C15.2083 8.07531 14.7419 8.54168 14.1666 8.54168C14.0231 8.54168 13.8863 8.51265 13.7619 8.46015Z" fill="#FAFBFB"/>
<path fill-rule="evenodd" clip-rule="evenodd" d="M6.09045 5.2226C6.00607 5.21318 5.92031 5.20834 5.83341 5.20834C4.56776 5.20834 3.54175 6.23436 3.54175 7.50001C3.54175 8.76566 4.56776 9.79168 5.83341 9.79168C6.23789 9.79168 6.6179 9.68689 6.94776 9.50298C6.66153 9.19509 6.42132 8.84383 6.23808 8.46015C6.11367 8.51265 5.97693 8.54168 5.83341 8.54168C5.25812 8.54168 4.79175 8.07531 4.79175 7.50001C4.79175 6.92471 5.25812 6.45834 5.83341 6.45834C5.83512 6.45834 5.83683 6.45835 5.83853 6.45836C5.85983 6.02581 5.94709 5.61061 6.09045 5.2226Z" fill="#FAFBFB"/>
</svg>
