<svg width="20" height="20" viewBox="0 0 20 20" fill="none" xmlns="http://www.w3.org/2000/svg">
<path d="M12.7084 5.83333C12.7084 7.3291 11.4959 8.54167 10.0001 8.54167V9.79167C12.1862 9.79167 13.9584 8.01946 13.9584 5.83333H12.7084ZM10.0001 8.54167C8.50431 8.54167 7.29175 7.3291 7.29175 5.83333H6.04175C6.04175 8.01946 7.81395 9.79167 10.0001 9.79167V8.54167ZM7.29175 5.83333C7.29175 4.33756 8.50431 3.125 10.0001 3.125V1.875C7.81395 1.875 6.04175 3.64721 6.04175 5.83333H7.29175ZM10.0001 3.125C11.4959 3.125 12.7084 4.33756 12.7084 5.83333H13.9584C13.9584 3.64721 12.1862 1.875 10.0001 1.875V3.125ZM15.2084 14.5833C15.2084 15.0245 14.8345 15.5921 13.8454 16.0867C12.8936 16.5626 11.5349 16.875 10.0001 16.875V18.125C11.6869 18.125 13.2449 17.7845 14.4044 17.2047C15.5264 16.6437 16.4584 15.753 16.4584 14.5833H15.2084ZM10.0001 16.875C8.46524 16.875 7.1066 16.5626 6.1548 16.0867C5.16562 15.5921 4.79175 15.0245 4.79175 14.5833H3.54175C3.54175 15.753 4.47372 16.6437 5.59578 17.2047C6.75523 17.7845 8.31326 18.125 10.0001 18.125V16.875ZM4.79175 14.5833C4.79175 14.1422 5.16562 13.5745 6.1548 13.08C7.1066 12.6041 8.46524 12.2917 10.0001 12.2917V11.0417C8.31326 11.0417 6.75523 11.3822 5.59578 11.9619C4.47372 12.523 3.54175 13.4137 3.54175 14.5833H4.79175ZM10.0001 12.2917C11.5349 12.2917 12.8936 12.6041 13.8454 13.08C14.8345 13.5745 15.2084 14.1422 15.2084 14.5833H16.4584C16.4584 13.4137 15.5264 12.523 14.4044 11.9619C13.2449 11.3822 11.6869 11.0417 10.0001 11.0417V12.2917Z" fill="#FAFBFB"/>
</svg>
