<svg width="20" height="20" viewBox="0 0 20 20" fill="none" xmlns="http://www.w3.org/2000/svg">
<circle cx="10.0001" cy="10" r="8.33333" stroke="#FAFBFB" stroke-width="1.25"/>
<path d="M12.2916 8.33333C12.2916 8.67851 12.0118 8.95833 11.6666 8.95833C11.3214 8.95833 11.0416 8.67851 11.0416 8.33333H12.2916ZM9.99992 9.375C10.3451 9.375 10.6249 9.65482 10.6249 10C10.6249 10.3452 10.3451 10.625 9.99992 10.625V9.375ZM11.0416 8.33333C11.0416 7.75804 10.5752 7.29167 9.99992 7.29167V6.04167C11.2656 6.04167 12.2916 7.06768 12.2916 8.33333H11.0416ZM9.99992 7.29167C9.42462 7.29167 8.95825 7.75804 8.95825 8.33333H7.70825C7.70825 7.06768 8.73427 6.04167 9.99992 6.04167V7.29167ZM8.95825 8.33333C8.95825 8.90863 9.42462 9.375 9.99992 9.375V10.625C8.73427 10.625 7.70825 9.59899 7.70825 8.33333H8.95825Z" fill="#FAFBFB"/>
<path d="M9.99992 10.625C9.65474 10.625 9.37492 10.3452 9.37492 9.99999C9.37492 9.65482 9.65474 9.37499 9.99992 9.37499V10.625ZM7.70825 11.6667C7.70825 11.3215 7.98807 11.0417 8.33325 11.0417C8.67843 11.0417 8.95825 11.3215 8.95825 11.6667H7.70825ZM11.0416 11.6667C11.0416 11.0914 10.5752 10.625 9.99992 10.625V9.37499C11.2656 9.37499 12.2916 10.401 12.2916 11.6667H11.0416ZM8.95825 11.6667C8.95825 12.242 9.42462 12.7083 9.99992 12.7083V13.9583C8.73427 13.9583 7.70825 12.9323 7.70825 11.6667H8.95825ZM9.99992 12.7083C10.5752 12.7083 11.0416 12.242 11.0416 11.6667H12.2916C12.2916 12.9323 11.2656 13.9583 9.99992 13.9583V12.7083Z" fill="#FAFBFB"/>
<path d="M10 5.41667V6.66667" stroke="#FAFBFB" stroke-width="1.25" stroke-linecap="round" stroke-linejoin="round"/>
<path d="M10 13.3333V14.5833" stroke="#FAFBFB" stroke-width="1.25" stroke-linecap="round" stroke-linejoin="round"/>
</svg>
