<svg width="49" height="48" viewBox="0 0 49 48" fill="none" xmlns="http://www.w3.org/2000/svg">
<path fill-rule="evenodd" clip-rule="evenodd" d="M24.0098 43.2C29.1418 43.2 33.9667 41.203 37.5967 37.576C41.2277 33.95 43.2257 29.128 43.2257 24.001C43.2257 18.873 41.2277 14.05 37.5967 10.423C33.9667 6.798 29.1418 4.801 24.0098 4.801C18.8758 4.801 14.0498 6.798 10.4207 10.423C2.92875 17.91 2.92875 30.091 10.4207 37.576C14.0498 41.203 18.8778 43.2 24.0098 43.2ZM24.0098 0C30.4248 0 36.4567 2.498 40.9948 7.029C45.5317 11.563 48.0308 17.59 48.0308 24.001C48.0308 30.413 45.5317 36.437 40.9948 40.972C36.4567 45.504 30.4248 48.001 24.0098 48.001C17.5938 48.001 11.5608 45.504 7.02375 40.972C-2.34125 31.614 -2.34125 16.387 7.02375 7.029C11.5608 2.497 17.5938 0 24.0098 0Z" fill="#095CE5"/>
</svg>
