<svg width="30" height="32" viewBox="0 0 30 32" fill="none" xmlns="http://www.w3.org/2000/svg">
<path fill-rule="evenodd" clip-rule="evenodd" d="M2 23.998H28C29.104 23.998 30 24.895 30 25.999C30 27.104 29.104 28.001 28 28.001H26V29.999C26 31.104 25.104 32.001 24 32.001C22.895 32.001 22 31.104 22 29.999V28.001H8V29.999C8 31.104 7.105 32.001 6 32.001C4.896 32.001 4 31.104 4 29.999V28.001H2C0.895 28.001 0 27.104 0 25.999C0 24.895 0.895 23.998 2 23.998ZM24 8C24 7.447 23.553 7 23 7H21C20.448 7 20 7.447 20 8V16.001C20 16.552 20.448 17.001 21 17.001H23C23.553 17.001 24 16.552 24 16.001V8ZM17 6C17 5.449 16.552 5.001 16 5.001H14C13.448 5.001 13 5.449 13 6V16.001C13 16.552 13.448 17.001 14 17.001H16C16.552 17.001 17 16.552 17 16.001V6ZM10 10.001C10 9.448 9.552 9.001 9 9.001H7C6.447 9.001 6 9.448 6 10.001V16.001C6 16.552 6.447 17.001 7 17.001H9C9.552 17.001 10 16.552 10 16.001V10.001ZM27 21.999H3C1.343 21.999 0 20.655 0 19.001V2.999C0 1.343 1.343 0 3 0H27C28.657 0 30 1.343 30 2.999V19.001C30 20.655 28.657 21.999 27 21.999Z" fill="#095CE5"/>
</svg>
