<svg width="28" height="32" viewBox="0 0 28 32" fill="none" xmlns="http://www.w3.org/2000/svg">
<path fill-rule="evenodd" clip-rule="evenodd" d="M13.9591 0C13.5721 0 13.1851 0.113 12.8491 0.334C12.7681 0.389 10.3641 1.962 8.01314 2.538C6.47414 2.918 4.81714 2.974 3.98414 2.974C3.48214 2.974 3.16114 2.955 3.12914 2.953C3.08514 2.951 3.04114 2.948 2.99714 2.948C2.49214 2.948 2.00114 3.139 1.62914 3.49C1.22514 3.866 0.994141 4.395 0.994141 4.949V10.948C0.994141 29.438 13.0921 31.818 13.6061 31.91C13.7231 31.933 13.8411 31.943 13.9591 31.943C14.0771 31.943 14.1971 31.933 14.3131 31.91C14.8261 31.818 27.0131 29.438 27.0131 10.948V5.947C27.0131 5.392 26.7821 3.864 26.3771 3.487C26.0061 3.139 25.5181 2.948 25.0131 2.948C24.9671 2.948 24.9211 2.951 24.8751 2.953C24.8471 2.955 24.5261 2.974 24.0221 2.974C23.1901 2.974 21.5631 2.918 20.0231 2.538C18.0341 2.053 15.7381 0.784 15.0701 0.336C14.7351 0.113 14.3471 0 13.9591 0Z" fill="white"/>
</svg>
