<svg width="32" height="32" viewBox="0 0 32 32" fill="none" xmlns="http://www.w3.org/2000/svg">
<path fill-rule="evenodd" clip-rule="evenodd" d="M30.557 13.339C31.351 13.339 31.994 13.983 31.994 14.777V17.219C31.994 18.011 31.351 18.657 30.557 18.657H30.162C29.241 18.657 28.438 19.251 28.14 20.121C27.96 20.648 27.746 21.158 27.502 21.651C27.09 22.48 27.234 23.476 27.889 24.129L28.172 24.413C28.733 24.974 28.733 25.885 28.172 26.447L26.446 28.18C25.884 28.743 24.974 28.743 24.413 28.18L24.109 27.869C23.456 27.215 22.467 27.069 21.638 27.475C21.151 27.721 20.648 27.931 20.128 28.097C19.254 28.389 18.655 29.199 18.655 30.136V30.56C18.655 31.348 18.012 31.994 17.218 31.994H14.777C13.983 31.994 13.34 31.348 13.34 30.56V30.073C13.34 29.158 12.747 28.368 11.879 28.054C11.372 27.889 10.88 27.682 10.404 27.445C9.573 27.032 8.579 27.175 7.923 27.827L7.582 28.18C7.02 28.743 6.11 28.743 5.549 28.18L3.823 26.447C3.262 25.885 3.262 24.974 3.823 24.413L4.184 24.052C4.837 23.399 4.981 22.409 4.576 21.579C4.346 21.11 4.144 20.624 3.972 20.123C3.673 19.251 2.871 18.657 1.949 18.657H1.438C0.644 18.657 0 18.011 0 17.219V14.777C0 13.983 0.644 13.339 1.438 13.339H1.949C2.871 13.339 3.673 12.742 3.972 11.873C4.144 11.372 4.346 10.886 4.576 10.417C4.981 9.586 4.837 8.596 4.184 7.945L3.823 7.58C3.262 7.021 3.262 6.111 3.823 5.548L5.549 3.823C6.11 3.261 7.02 3.261 7.582 3.823L7.923 4.164C8.579 4.82 9.573 4.962 10.404 4.55C10.88 4.314 11.372 4.109 11.879 3.933C12.747 3.632 13.339 2.831 13.339 1.913V1.439C13.339 0.644 13.983 0 14.777 0H17.218C18.012 0 18.655 0.644 18.655 1.439V1.869C18.655 2.793 19.254 3.598 20.128 3.895C20.648 4.071 21.151 4.279 21.638 4.516C22.467 4.924 23.456 4.778 24.109 4.126L24.413 3.823C24.974 3.261 25.884 3.261 26.446 3.823L28.172 5.548C28.733 6.111 28.733 7.021 28.172 7.58L27.889 7.866C27.234 8.521 27.09 9.515 27.502 10.345C27.746 10.838 27.96 11.347 28.14 11.874C28.438 12.745 29.241 13.339 30.162 13.339H30.557ZM21.9932 15.9897C21.9932 12.6747 19.3072 9.99072 15.9932 9.99072C12.6792 9.99072 9.99316 12.6747 9.99316 15.9897C9.99316 19.3027 12.6792 21.9877 15.9932 21.9877C19.3072 21.9877 21.9932 19.3027 21.9932 15.9897Z" fill="white"/>
</svg>
