<svg width="32" height="32" viewBox="0 0 32 32" fill="none" xmlns="http://www.w3.org/2000/svg">
<path fill-rule="evenodd" clip-rule="evenodd" d="M16 0C24.8366 0 32 7.16344 32 16C32 24.8366 24.8366 32 16 32C7.16344 32 0 24.8366 0 16C0.0115689 7.16824 7.16824 0.0115689 16 0ZM16 9H19.45C19.9884 9.0485 20.5209 9.14897 21.04 9.3C21.4048 9.4748 21.7364 9.71166 22.02 10C22.3032 10.2831 22.5215 10.6243 22.66 11C22.8509 11.4771 22.9493 11.9861 22.95 12.5C22.99 13.4 23 13.7 23 16C23 18.3 22.99 18.6 22.95 19.5C22.9493 20.0139 22.8509 20.5229 22.66 21C22.5215 21.3757 22.3032 21.7169 22.02 22C21.7364 22.2883 21.4048 22.5252 21.04 22.7C20.5209 22.851 19.9884 22.9515 19.45 23H12.55C12.0116 22.9515 11.4791 22.851 10.96 22.7C10.5952 22.5252 10.2636 22.2883 9.98 22C9.69682 21.7169 9.47846 21.3757 9.34 21C9.14914 20.5229 9.05073 20.0139 9.05 19.5C9.01 18.6 9 18.3 9 16C9 13.7 9.01 13.4 9.05 12.5C9.05073 11.9861 9.14914 11.4771 9.34 11C9.47846 10.6243 9.69682 10.2831 9.98 10C10.2636 9.71166 10.5952 9.4748 10.96 9.3C11.4791 9.14897 12.0116 9.0485 12.55 9H16ZM16 7C14.7625 6.95658 13.5234 6.98998 12.29 7.1C11.5418 7.10011 10.7999 7.23563 10.1 7.5C9.49727 7.70057 8.95183 8.04361 8.51 8.5C8.04975 8.95025 7.69462 9.49659 7.47 10.1C7.21035 10.8054 7.06846 11.5486 7.05 12.3C7.01 13.2 7 13.6 7 16C7 18.4 7.01 18.8 7.05 19.7C7.06846 20.4514 7.21035 21.1946 7.47 21.9C7.69462 22.5034 8.04975 23.0498 8.51 23.5C8.95183 23.9564 9.49727 24.2994 10.1 24.5C10.7858 24.8121 11.5382 24.9495 12.29 24.9C14.7615 25.0333 17.2385 25.0333 19.71 24.9C20.4618 24.9495 21.2142 24.8121 21.9 24.5C22.5027 24.2994 23.0482 23.9564 23.49 23.5C23.9503 23.0498 24.3054 22.5034 24.53 21.9C24.7896 21.1946 24.9315 20.4514 24.95 19.7C24.99 18.8 25 18.4 25 16C25 13.6 24.99 13.2 24.95 12.3C24.9315 11.5486 24.7896 10.8054 24.53 10.1C24.3054 9.49659 23.9503 8.95025 23.49 8.5C23.0482 8.04361 22.5027 7.70057 21.9 7.5C21.2001 7.23563 20.4582 7.10011 19.71 7.1C18.4766 6.98998 17.2375 6.95658 16 7ZM16 12C13.7909 12 12 13.7909 12 16C12 18.2091 13.7909 20 16 20C18.2091 20 20 18.2091 20 16C19.9972 13.792 18.208 12.0028 16 12ZM16 18C14.8954 18 14 17.1046 14 16C14 14.8954 14.8954 14 16 14C17.1046 14 18 14.8954 18 16C17.9967 17.1032 17.1032 17.9967 16 18ZM21.0117 12C21.0117 12.5523 20.564 13 20.0117 13C19.4594 13 19.0117 12.5523 19.0117 12C19.0117 11.4477 19.4594 11 20.0117 11C20.564 11 21.0117 11.4477 21.0117 12Z" fill="white"/>
</svg>
