<?xml version="1.0" encoding="UTF-8"?>
<svg id="Design" xmlns="http://www.w3.org/2000/svg" xmlns:xlink="http://www.w3.org/1999/xlink" viewBox="0 0 500 500">
  <defs>
    <style>
      .cls-1 {
        fill: url(#linear-gradient-2);
      }

      .cls-2 {
        fill: #09f;
      }

      .cls-3 {
        fill: #010d23;
      }

      .cls-4 {
        fill: url(#linear-gradient-3);
      }

      .cls-5 {
        fill: url(#linear-gradient);
      }
    </style>
    <linearGradient id="linear-gradient" x1="40.84" y1="287.63" x2="116.09" y2="212.37" gradientTransform="matrix(1, 0, 0, 1, 0, 0)" gradientUnits="userSpaceOnUse">
      <stop offset="0" stop-color="#7b0b84"/>
      <stop offset=".17" stop-color="#6b1c93"/>
      <stop offset=".5" stop-color="#4449ba"/>
      <stop offset=".96" stop-color="#0592f9"/>
      <stop offset="1" stop-color="#09f"/>
    </linearGradient>
    <linearGradient id="linear-gradient-2" x1="61.61" y1="255.71" x2="91.12" y2="226.2" xlink:href="#linear-gradient"/>
    <linearGradient id="linear-gradient-3" x1="62.94" y1="272.37" x2="89.79" y2="245.53" xlink:href="#linear-gradient"/>
  </defs>
  <g>
    <path class="cls-5" d="M78.47,194.91l-47.71,27.54v55.09l47.71,27.54,47.71-27.54v-55.09l-47.71-27.54Zm39.37,77.82l-39.37,22.73-39.37-22.73v-45.46l39.37-22.73,39.37,22.73v45.46Z"/>
    <g>
      <polygon class="cls-1" points="63.59 248.48 63.59 241.44 78.35 232.92 90.03 239.67 90.03 244.88 99.27 244.88 99.25 234.32 99.23 234.33 78.35 222.28 54.37 236.12 54.37 248.48 63.59 248.48"/>
      <polygon class="cls-4" points="90.03 260.25 78.35 267 63.59 258.48 63.59 251.44 54.37 251.44 54.37 263.8 78.35 277.64 99.25 265.57 99.27 255.02 90.03 255.02 90.03 260.25"/>
    </g>
  </g>
  <g>
    <path class="cls-3" d="M167.84,269.63c-2.93,0-5.65-.48-8.16-1.44-2.51-.96-4.69-2.32-6.53-4.09s-3.28-3.85-4.31-6.24c-1.03-2.38-1.55-5-1.55-7.86s.52-5.48,1.55-7.86c1.03-2.39,2.48-4.46,4.34-6.23,1.86-1.77,4.04-3.14,6.53-4.09,2.49-.96,5.22-1.44,8.19-1.44,3.29,0,6.26,.57,8.92,1.71,2.66,1.14,4.89,2.81,6.7,5.01l-5.64,5.2c-1.3-1.48-2.75-2.59-4.34-3.33-1.59-.74-3.33-1.11-5.2-1.11-1.77,0-3.4,.29-4.88,.87-1.48,.58-2.76,1.41-3.85,2.49-1.08,1.08-1.92,2.37-2.52,3.85-.6,1.48-.89,3.13-.89,4.93s.3,3.45,.89,4.93c.6,1.48,1.44,2.77,2.52,3.85,1.08,1.08,2.37,1.92,3.85,2.49,1.48,.58,3.11,.87,4.88,.87,1.88,0,3.61-.37,5.2-1.11,1.59-.74,3.04-1.87,4.34-3.39l5.64,5.21c-1.81,2.21-4.04,3.89-6.7,5.04-2.66,1.16-5.65,1.73-8.97,1.73Z"/>
    <path class="cls-3" d="M189.41,268.98v-37.95h8.78v30.79h19.03v7.16h-27.81Z"/>
    <path class="cls-3" d="M239.94,269.63c-3,0-5.77-.49-8.32-1.46-2.55-.98-4.75-2.35-6.61-4.12-1.86-1.77-3.31-3.85-4.34-6.23-1.03-2.39-1.55-4.99-1.55-7.81s.52-5.42,1.55-7.81c1.03-2.38,2.48-4.46,4.36-6.23,1.88-1.77,4.08-3.14,6.61-4.12,2.53-.98,5.28-1.46,8.24-1.46s5.76,.49,8.27,1.46c2.51,.98,4.7,2.35,6.56,4.12,1.86,1.77,3.32,3.84,4.37,6.21,1.05,2.37,1.57,4.98,1.57,7.83s-.53,5.43-1.57,7.83c-1.05,2.4-2.5,4.48-4.37,6.23s-4.05,3.12-6.56,4.09c-2.51,.98-5.25,1.46-8.21,1.46Zm-.05-7.48c1.7,0,3.26-.29,4.69-.87,1.43-.58,2.68-1.41,3.77-2.49,1.08-1.08,1.92-2.37,2.52-3.85,.6-1.48,.89-3.12,.89-4.93s-.3-3.45-.89-4.93c-.6-1.48-1.43-2.77-2.49-3.85-1.07-1.08-2.32-1.92-3.77-2.49-1.45-.58-3.02-.87-4.72-.87s-3.26,.29-4.69,.87c-1.43,.58-2.68,1.41-3.77,2.49-1.08,1.08-1.92,2.37-2.52,3.85-.6,1.48-.89,3.13-.89,4.93s.3,3.41,.89,4.91c.6,1.5,1.43,2.79,2.49,3.88,1.07,1.08,2.32,1.92,3.77,2.49,1.45,.58,3.02,.87,4.72,.87Z"/>
    <path class="cls-3" d="M284.12,269.63c-5.39,0-9.6-1.5-12.63-4.5-3.04-3-4.55-7.28-4.55-12.85v-21.25h8.78v20.93c0,3.61,.74,6.22,2.22,7.81,1.48,1.59,3.56,2.39,6.24,2.39s4.75-.79,6.23-2.39c1.48-1.59,2.22-4.19,2.22-7.81v-20.93h8.67v21.25c0,5.57-1.52,9.85-4.55,12.85-3.04,3-7.25,4.5-12.63,4.5Z"/>
    <path class="cls-3" d="M309.98,268.98v-37.95h17.24c4.12,0,7.75,.79,10.9,2.36s5.6,3.77,7.37,6.59,2.66,6.16,2.66,10.03-.89,7.17-2.66,10c-1.77,2.84-4.23,5.04-7.37,6.61s-6.78,2.36-10.9,2.36h-17.24Zm8.78-7.21h8.02c2.53,0,4.72-.48,6.59-1.44,1.86-.96,3.31-2.32,4.34-4.09,1.03-1.77,1.54-3.85,1.54-6.23s-.51-4.51-1.54-6.26-2.48-3.11-4.34-4.07c-1.86-.96-4.06-1.44-6.59-1.44h-8.02v23.53Z"/>
    <path class="cls-2" d="M360.11,268.98v-37.95h16.43c3.4,0,6.32,.55,8.78,1.65,2.46,1.1,4.35,2.68,5.69,4.74,1.34,2.06,2.01,4.52,2.01,7.37s-.67,5.25-2.01,7.29c-1.34,2.04-3.24,3.61-5.69,4.69-2.46,1.08-5.39,1.63-8.78,1.63h-11.55l3.9-3.85v14.42h-8.78Zm8.78-13.45l-3.9-4.12h11.06c2.71,0,4.73-.59,6.07-1.76,1.34-1.17,2.01-2.79,2.01-4.85s-.67-3.72-2.01-4.88c-1.34-1.16-3.36-1.74-6.07-1.74h-11.06l3.9-4.17v21.52Zm15.34,13.45l-9.49-13.77h9.38l9.6,13.77h-9.49Z"/>
    <path class="cls-2" d="M408.68,261.93h20.66v7.05h-29.38v-37.95h28.68v7.05h-19.95v23.85Zm-.65-15.61h18.27v6.83h-18.27v-6.83Z"/>
    <path class="cls-2" d="M436.33,268.98v-37.95h16.43c3.4,0,6.32,.55,8.78,1.65,2.46,1.1,4.35,2.68,5.69,4.74,1.34,2.06,2.01,4.52,2.01,7.37s-.67,5.26-2.01,7.32c-1.34,2.06-3.24,3.64-5.69,4.74-2.46,1.1-5.39,1.65-8.78,1.65h-11.55l3.9-3.96v14.42h-8.78Zm8.78-13.45l-3.9-4.17h11.06c2.71,0,4.73-.58,6.07-1.73,1.34-1.16,2.01-2.76,2.01-4.83s-.67-3.72-2.01-4.88c-1.34-1.16-3.36-1.74-6.07-1.74h-11.06l3.9-4.17v21.52Z"/>
  </g>
</svg>