<svg width="279" height="71" viewBox="0 0 279 71" fill="none" xmlns="http://www.w3.org/2000/svg">
<path d="M30.3573 0L0 17.5234V52.5765L30.3573 70.0999L60.7147 52.5765V17.5234L30.3573 0ZM55.408 49.516L30.3573 63.9788L5.30665 49.516V20.5903L30.3573 6.12745L55.408 20.5903V49.516Z" fill="url(#paint0_linear_3039_14275)"/>
<path d="M20.89 34.086V29.6065L30.2816 24.1853L37.7135 28.4803V31.7953H43.5928L43.5801 25.0761L43.5673 25.0825L30.2816 17.4152L15.0234 26.2214V34.086H20.89Z" fill="url(#paint1_linear_3039_14275)"/>
<path d="M37.7135 41.5751L30.2816 45.87L20.89 40.4489V35.9694H15.0234V43.8339L30.2816 52.6402L43.5801 44.9601L43.5928 38.2473H37.7135V41.5751Z" fill="url(#paint2_linear_3039_14275)"/>
<path d="M87.2222 47.2444C85.3579 47.2444 83.6272 46.939 82.0301 46.3282C80.433 45.7173 79.0459 44.852 77.8751 43.7257C76.7044 42.5995 75.7881 41.276 75.1327 39.7553C74.4774 38.2409 74.1465 36.5739 74.1465 34.7541C74.1465 32.9343 74.4774 31.2672 75.1327 29.7528C75.7881 28.2321 76.7107 26.915 77.8942 25.7888C79.0777 24.6625 80.4648 23.7908 82.0492 23.1863C83.6336 22.5755 85.3706 22.2701 87.2604 22.2701C89.3538 22.2701 91.2436 22.6328 92.9361 23.3581C94.6286 24.0835 96.0475 25.1461 97.1992 26.5459L93.6106 29.8546C92.7834 28.9129 91.8608 28.2067 90.8491 27.7358C89.8374 27.265 88.7302 27.0295 87.5404 27.0295C86.4141 27.0295 85.377 27.214 84.4353 27.5831C83.4936 27.9521 82.6791 28.4803 81.9856 29.1675C81.2984 29.8546 80.7639 30.6755 80.3821 31.6172C80.0003 32.5589 79.8158 33.6087 79.8158 34.7541C79.8158 35.8994 80.0067 36.9493 80.3821 37.891C80.7639 38.8327 81.2984 39.6535 81.9856 40.3407C82.6728 41.0279 83.4936 41.5623 84.4353 41.925C85.377 42.2941 86.4141 42.4786 87.5404 42.4786C88.7366 42.4786 89.8374 42.2432 90.8491 41.7723C91.8608 41.3015 92.7834 40.5825 93.6106 39.6153L97.1992 42.9304C96.0475 44.3366 94.6286 45.4055 92.9361 46.1373C91.2436 46.8754 89.3411 47.238 87.2286 47.238L87.2222 47.2444Z" fill="white"/>
<path d="M100.947 46.8308V22.6837H106.534V42.275H118.642V46.8308H100.947Z" fill="white"/>
<path d="M133.099 47.2444C131.19 47.2444 129.428 46.9326 127.805 46.3155C126.183 45.6919 124.783 44.8202 123.599 43.6939C122.416 42.5677 121.493 41.2442 120.838 39.7299C120.182 38.2091 119.852 36.5548 119.852 34.7604C119.852 32.9661 120.182 31.3118 120.838 29.791C121.493 28.2767 122.416 26.9532 123.612 25.827C124.808 24.7007 126.208 23.829 127.818 23.2054C129.428 22.5819 131.178 22.2765 133.061 22.2765C134.944 22.2765 136.726 22.5882 138.323 23.2054C139.92 23.829 141.314 24.7007 142.497 25.827C143.681 26.9532 144.61 28.2703 145.278 29.7783C145.946 31.2863 146.277 32.947 146.277 34.7604C146.277 36.5739 145.939 38.2155 145.278 39.7426C144.61 41.2697 143.687 42.5932 142.497 43.7067C141.307 44.8202 139.92 45.6919 138.323 46.3091C136.726 46.9326 134.983 47.2381 133.099 47.2381V47.2444ZM133.067 42.485C134.149 42.485 135.142 42.3005 136.051 41.9314C136.961 41.5624 137.757 41.0343 138.45 40.3471C139.137 39.6599 139.672 38.8391 140.054 37.8973C140.435 36.9556 140.62 35.9121 140.62 34.7604C140.62 33.6088 140.429 32.5652 140.054 31.6235C139.672 30.6818 139.144 29.861 138.469 29.1738C137.789 28.4866 136.993 27.9522 136.071 27.5895C135.148 27.2204 134.149 27.0359 133.067 27.0359C131.986 27.0359 130.993 27.2204 130.083 27.5895C129.173 27.9585 128.378 28.4866 127.684 29.1738C126.997 29.861 126.463 30.6818 126.081 31.6235C125.699 32.5652 125.515 33.6151 125.515 34.7604C125.515 35.9058 125.705 36.9302 126.081 37.8846C126.463 38.8391 126.991 39.6599 127.665 40.3534C128.346 41.0406 129.141 41.5751 130.064 41.9378C130.987 42.3068 131.986 42.4914 133.067 42.4914V42.485Z" fill="white"/>
<path d="M161.209 47.2444C157.779 47.2444 155.1 46.29 153.172 44.3811C151.238 42.4722 150.277 39.7489 150.277 36.2048V22.6837H155.864V36.0012C155.864 38.2982 156.335 39.9589 157.277 40.9706C158.218 41.9823 159.542 42.4913 161.247 42.4913C162.952 42.4913 164.269 41.9887 165.211 40.9706C166.153 39.9589 166.624 38.3046 166.624 36.0012V22.6837H172.14V36.2048C172.14 39.7489 171.173 42.4722 169.245 44.3811C167.311 46.29 164.632 47.2444 161.209 47.2444Z" fill="white"/>
<path d="M177.664 46.8308V22.6837H188.634C191.255 22.6837 193.565 23.1863 195.569 24.1853C197.574 25.1843 199.132 26.5841 200.259 28.3785C201.385 30.1728 201.951 32.298 201.951 34.7604C201.951 37.2229 201.385 39.3226 200.259 41.1233C199.132 42.9304 197.567 44.3302 195.569 45.3292C193.571 46.3282 191.255 46.8308 188.634 46.8308H177.664ZM183.251 42.2432H188.354C189.964 42.2432 191.357 41.9378 192.547 41.3269C193.73 40.7161 194.653 39.8507 195.308 38.7245C195.964 37.5983 196.288 36.2748 196.288 34.7604C196.288 33.2461 195.964 31.8908 195.308 30.7773C194.653 29.6638 193.73 28.7984 192.547 28.1876C191.363 27.5767 189.964 27.2713 188.354 27.2713H183.251V42.2432Z" fill="white"/>
<path d="M209.562 46.8308V22.6837H220.017C222.18 22.6837 224.038 23.0336 225.603 23.7335C227.169 24.4335 228.371 25.4388 229.224 26.7496C230.076 28.0603 230.503 29.6256 230.503 31.439C230.503 33.2524 230.076 34.7795 229.224 36.0775C228.371 37.3756 227.162 38.3745 225.603 39.0617C224.038 39.7489 222.174 40.0989 220.017 40.0989H212.668L215.149 37.6492V46.8245H209.562V46.8308ZM215.149 38.2727L212.668 35.6512H219.705C221.429 35.6512 222.715 35.2758 223.567 34.5314C224.42 33.7869 224.846 32.7561 224.846 31.4454C224.846 30.1346 224.42 29.0784 223.567 28.3403C222.715 27.6022 221.429 27.2331 219.705 27.2331H212.668L215.149 24.5798V38.2727ZM224.91 46.8308L218.871 38.0691H224.84L230.948 46.8308H224.91Z" fill="#0099FF"/>
<path d="M240.466 42.345H253.612V46.8308H234.918V22.6837H253.167V27.1695H240.473V42.345H240.466ZM240.053 32.4125H251.678V36.7584H240.053V32.4125Z" fill="#0099FF"/>
<path d="M258.059 46.8308V22.6837H268.513C270.676 22.6837 272.534 23.0336 274.099 23.7335C275.665 24.4335 276.867 25.4388 277.72 26.7496C278.573 28.0603 278.999 29.6256 278.999 31.439C278.999 33.2524 278.573 34.7859 277.72 36.0966C276.867 37.4074 275.658 38.4127 274.099 39.1126C272.534 39.8126 270.67 40.1625 268.513 40.1625H261.164L263.645 37.6428V46.8181H258.059V46.8308ZM263.645 38.2727L261.164 35.6194H268.201C269.925 35.6194 271.211 35.2504 272.063 34.5186C272.916 33.7805 273.342 32.7625 273.342 31.4454C273.342 30.1282 272.916 29.0784 272.063 28.3403C271.211 27.6022 269.925 27.2331 268.201 27.2331H261.164L263.645 24.5798V38.2727Z" fill="#0099FF"/>
<defs>
<linearGradient id="paint0_linear_3039_14275" x1="6.41379" y1="58.9967" x2="54.2945" y2="11.1096" gradientUnits="userSpaceOnUse">
<stop stop-color="#7B0B84"/>
<stop offset="0.17" stop-color="#6B1C93"/>
<stop offset="0.5" stop-color="#4449BA"/>
<stop offset="0.96" stop-color="#0592F9"/>
<stop offset="1" stop-color="#0099FF"/>
</linearGradient>
<linearGradient id="paint1_linear_3039_14275" x1="19.6302" y1="38.6863" x2="38.407" y2="19.9095" gradientUnits="userSpaceOnUse">
<stop stop-color="#7B0B84"/>
<stop offset="0.17" stop-color="#6B1C93"/>
<stop offset="0.5" stop-color="#4449BA"/>
<stop offset="0.96" stop-color="#0592F9"/>
<stop offset="1" stop-color="#0099FF"/>
</linearGradient>
<linearGradient id="paint2_linear_3039_14275" x1="20.4764" y1="49.2869" x2="37.5608" y2="32.2089" gradientUnits="userSpaceOnUse">
<stop stop-color="#7B0B84"/>
<stop offset="0.17" stop-color="#6B1C93"/>
<stop offset="0.5" stop-color="#4449BA"/>
<stop offset="0.96" stop-color="#0592F9"/>
<stop offset="1" stop-color="#0099FF"/>
</linearGradient>
</defs>
</svg>
