<svg width="46" height="46" viewBox="0 0 46 46" fill="none" xmlns="http://www.w3.org/2000/svg">
<path fill-rule="evenodd" clip-rule="evenodd" d="M0.5 23.013C0.5 10.5941 10.5989 0.5 23 0.5C35.4011 0.5 45.5 10.5941 45.5 23.013C45.5 35.4059 35.4011 45.5 23 45.5C10.5989 45.5 0.5 35.4059 0.5 23.013ZM31.2529 25.2902C31.4918 25.0514 31.7958 24.6823 31.861 24.5955C32.2085 24.1397 32.3822 23.5753 32.3822 23.013C32.3822 22.3813 32.1868 21.7952 31.8176 21.3177C31.7873 21.2874 31.7281 21.2229 31.6509 21.1389C31.5064 20.9816 31.299 20.7559 31.1009 20.5579C29.32 18.6476 24.6723 15.5217 22.2399 14.5666C21.8707 14.4168 20.9368 14.089 20.4373 14.0673C19.9595 14.0673 19.5034 14.1758 19.069 14.3929C18.5261 14.6968 18.0917 15.1744 17.8528 15.7388C17.7008 16.1295 17.4619 17.3017 17.4619 17.3234C17.223 18.6042 17.0927 20.6881 17.0927 22.9891C17.0927 25.1838 17.223 27.1787 17.4184 28.4812C17.4238 28.4866 17.4425 28.5797 17.4715 28.7244C17.5598 29.1644 17.7436 30.0809 17.9397 30.4566C18.4175 31.3683 19.3514 31.9327 20.3504 31.9327H20.4373C21.0888 31.911 22.457 31.3466 22.457 31.3249C24.7592 30.3698 29.2983 27.3958 31.1226 25.4204L31.2529 25.2902Z" fill="white"/>
</svg>
