<svg width="30" height="34" viewBox="0 0 30 34" fill="none" xmlns="http://www.w3.org/2000/svg">
<path d="M14.724 0L0 8.49923V25.5008L14.724 34L29.448 25.5008V8.49923L14.724 0ZM26.8741 24.0163L14.724 31.0311L2.57384 24.0163V9.98675L14.724 2.97195L26.8741 9.98675V24.0163Z" fill="white"/>
<path d="M10.1306 16.533V14.3603L14.6857 11.7309L18.2903 13.8141V15.4219H21.1419L21.1358 12.163L21.1296 12.1661L14.6857 8.44727L7.28516 12.7185V16.533H10.1306Z" fill="white"/>
<path d="M18.2786 20.1798L14.674 22.263L10.1189 19.6336V17.4609H7.27344V21.2754L14.674 25.5466L21.124 21.8217L21.1302 18.5658H18.2786V20.1798Z" fill="white"/>
</svg>
