<svg width="32" height="32" viewBox="0 0 32 32" fill="none" xmlns="http://www.w3.org/2000/svg">
<path fill-rule="evenodd" clip-rule="evenodd" d="M32 15.9993C32 7.164 24.8367 0 16 0C7.16333 0 0 7.164 0 15.9993C0 24.836 7.16333 32 16 32C24.8367 32 32 24.836 32 15.9993ZM22.1187 12.0599C22.7833 11.9806 23.416 11.8046 24.0047 11.5419C23.5647 12.1986 23.008 12.7779 22.366 13.2412C22.3727 13.3812 22.3753 13.5232 22.3753 13.6646C22.3753 17.9979 19.0733 22.9972 13.034 22.9972C11.1793 22.9972 9.454 22.4526 8 21.5212C8.25733 21.5532 8.51867 21.5672 8.78333 21.5672C10.322 21.5672 11.7373 21.0439 12.8613 20.1619C11.4247 20.1386 10.212 19.1899 9.794 17.8872C9.99467 17.9246 10.2 17.9452 10.412 17.9452C10.7113 17.9452 11.0013 17.9046 11.2773 17.8292C9.77533 17.5292 8.64333 16.2032 8.64333 14.6139C8.64333 14.6012 8.64333 14.5879 8.644 14.5739C9.086 14.8179 9.59267 14.9666 10.1307 14.9839C9.24933 14.3959 8.67 13.3912 8.67 12.2552C8.67 11.6532 8.832 11.0906 9.11467 10.6046C10.734 12.5899 13.1533 13.8946 15.8827 14.0312C15.8267 13.7926 15.7973 13.5412 15.7973 13.2846C15.7973 11.4739 17.2673 10.0039 19.0813 10.0039C20.0253 10.0039 20.8787 10.4026 21.4773 11.0399C22.2253 10.8939 22.928 10.6199 23.5627 10.2439C23.3173 11.0106 22.7967 11.6539 22.1187 12.0599Z" fill="white"/>
</svg>
