<svg width="20" height="20" viewBox="0 0 20 20" fill="none" xmlns="http://www.w3.org/2000/svg">
<path d="M6.74841 14.3001L6.20714 14.6126C6.34433 14.8502 6.62045 14.9706 6.88791 14.9093L6.74841 14.3001ZM4.24841 9.96996L3.79055 9.54454C3.60378 9.74554 3.56995 10.0448 3.70714 10.2825L4.24841 9.96996ZM16.6687 9.8159L17.21 9.5034L16.6687 9.8159ZM15.5973 12.2739L15.4578 11.6646L15.5973 12.2739ZM13.092 3.62082L12.5507 3.93332L13.092 3.62082ZM10.4276 3.31968L10.8855 3.7451L10.4276 3.31968ZM4.45676 10.3308L3.9155 10.6433H3.9155L4.45676 10.3308ZM6.5401 13.9392L7.08136 13.6267L6.5401 13.9392ZM4.37503 15.1892L4.9163 14.8767L4.37503 15.1892ZM2.2917 11.5808L1.75043 11.8933H1.75043L2.2917 11.5808ZM2.74923 9.87326L2.43673 9.33199L2.74923 9.87326ZM6.08257 15.6468L5.77007 15.1055L6.08257 15.6468ZM12.3414 12.9609C12.1688 12.6619 11.7865 12.5595 11.4876 12.7321C11.1887 12.9047 11.0863 13.2869 11.2588 13.5859L12.3414 12.9609ZM13.5892 16.3723L14.1305 16.0598L14.1305 16.0598L13.5892 16.3723ZM11.4242 17.6223L11.9654 17.3098L11.4242 17.6223ZM9.75415 13.4797C9.58156 13.1808 9.19932 13.0783 8.90038 13.2509C8.60145 13.4235 8.49903 13.8058 8.67162 14.1047L9.75415 13.4797ZM13.1317 18.0798L12.8192 17.5385L13.1317 18.0798ZM15.6082 3.86321C15.5189 4.19662 15.7168 4.53933 16.0502 4.62867C16.3836 4.71801 16.7263 4.52015 16.8156 4.18673L15.6082 3.86321ZM17.1207 3.04838C17.21 2.71496 17.0121 2.37225 16.6787 2.28291C16.3453 2.19357 16.0026 2.39144 15.9132 2.72485L17.1207 3.04838ZM18.0404 6.30803C17.7069 6.21869 17.3642 6.41655 17.2749 6.74997C17.1856 7.08338 17.3834 7.42609 17.7168 7.51543L18.0404 6.30803ZM18.8552 7.82045C19.1886 7.90979 19.5313 7.71193 19.6207 7.37851C19.71 7.0451 19.5121 6.70239 19.1787 6.61305L18.8552 7.82045ZM12.5507 3.93332L16.1274 10.1284L17.21 9.5034L13.6332 3.30832L12.5507 3.93332ZM15.4578 11.6646L6.6089 13.6909L6.88791 14.9093L15.7368 12.8831L15.4578 11.6646ZM7.28967 13.9876L4.78967 9.65746L3.70714 10.2825L6.20714 14.6126L7.28967 13.9876ZM4.70627 10.3954L10.8855 3.7451L9.96979 2.89425L3.79055 9.54454L4.70627 10.3954ZM16.1274 10.1284C16.4779 10.7353 16.141 11.5082 15.4578 11.6646L15.7368 12.8831C17.2398 12.5389 17.9809 10.8387 17.21 9.5034L16.1274 10.1284ZM13.6332 3.30832C12.8623 1.97304 11.0193 1.76473 9.96979 2.89425L10.8855 3.7451C11.3626 3.23169 12.2003 3.32637 12.5507 3.93332L13.6332 3.30832ZM3.9155 10.6433L5.99883 14.2517L7.08136 13.6267L4.99803 10.0183L3.9155 10.6433ZM4.9163 14.8767L2.83297 11.2683L1.75043 11.8933L3.83377 15.5017L4.9163 14.8767ZM2.83297 11.2683C2.66038 10.9694 2.7628 10.5871 3.06173 10.4145L2.43673 9.33199C1.53993 9.84976 1.23267 10.9965 1.75043 11.8933L2.83297 11.2683ZM5.77007 15.1055C5.47113 15.2781 5.08889 15.1757 4.9163 14.8767L3.83377 15.5017C4.35153 16.3985 5.49827 16.7058 6.39506 16.188L5.77007 15.1055ZM5.99883 14.2517C6.17142 14.5507 6.069 14.9329 5.77007 15.1055L6.39506 16.188C7.29186 15.6703 7.59913 14.5235 7.08136 13.6267L5.99883 14.2517ZM4.99803 10.0183C4.48026 9.12149 3.33353 8.81422 2.43673 9.33199L3.06173 10.4145C3.36066 10.2419 3.74291 10.3444 3.9155 10.6433L4.99803 10.0183ZM11.2588 13.5859L13.048 16.6848L14.1305 16.0598L12.3414 12.9609L11.2588 13.5859ZM11.9654 17.3098L9.75415 13.4797L8.67162 14.1047L10.8829 17.9348L11.9654 17.3098ZM12.8192 17.5385C12.5203 17.7111 12.138 17.6087 11.9654 17.3098L10.8829 17.9348C11.4007 18.8316 12.5474 19.1388 13.4442 18.621L12.8192 17.5385ZM13.048 16.6848C13.2206 16.9837 13.1181 17.3659 12.8192 17.5385L13.4442 18.621C14.341 18.1033 14.6483 16.9566 14.1305 16.0598L13.048 16.6848ZM16.8156 4.18673L17.1207 3.04838L15.9132 2.72485L15.6082 3.86321L16.8156 4.18673ZM17.7168 7.51543L18.8552 7.82045L19.1787 6.61305L18.0404 6.30803L17.7168 7.51543Z" fill="#131517"/>
</svg>
