<svg width="20" height="20" viewBox="0 0 20 20" fill="none" xmlns="http://www.w3.org/2000/svg">
<path d="M10.6248 1.66675C10.6248 1.32157 10.345 1.04175 9.99984 1.04175C9.65466 1.04175 9.37484 1.32157 9.37484 1.66675H10.6248ZM9.37484 18.3334C9.37484 18.6786 9.65466 18.9584 9.99984 18.9584C10.345 18.9584 10.6248 18.6786 10.6248 18.3334H9.37484ZM4.99984 2.29175H14.9998V1.04175H4.99984V2.29175ZM17.7082 5.00008V15.0001H18.9582V5.00008H17.7082ZM14.9998 17.7084H4.99984V18.9584H14.9998V17.7084ZM2.2915 15.0001V5.00008H1.0415V15.0001H2.2915ZM4.99984 17.7084C3.50407 17.7084 2.2915 16.4958 2.2915 15.0001H1.0415C1.0415 17.1862 2.81371 18.9584 4.99984 18.9584V17.7084ZM17.7082 15.0001C17.7082 16.4958 16.4956 17.7084 14.9998 17.7084V18.9584C17.186 18.9584 18.9582 17.1862 18.9582 15.0001H17.7082ZM14.9998 2.29175C16.4956 2.29175 17.7082 3.50431 17.7082 5.00008H18.9582C18.9582 2.81395 17.186 1.04175 14.9998 1.04175V2.29175ZM4.99984 1.04175C2.81371 1.04175 1.0415 2.81395 1.0415 5.00008H2.2915C2.2915 3.50431 3.50407 2.29175 4.99984 2.29175V1.04175ZM9.37484 1.66675V18.3334H10.6248V1.66675H9.37484Z" fill="#131517"/>
</svg>
