<svg width="20" height="20" viewBox="0 0 20 20" fill="none" xmlns="http://www.w3.org/2000/svg">
<path d="M15.6248 12.5C15.6248 12.1548 15.345 11.875 14.9998 11.875C14.6547 11.875 14.3748 12.1548 14.3748 12.5H15.6248ZM14.3748 17.5C14.3748 17.8452 14.6547 18.125 14.9998 18.125C15.345 18.125 15.6248 17.8452 15.6248 17.5H14.3748ZM4.26216 6.26123C3.92105 6.2084 3.60169 6.4421 3.54887 6.78321C3.49604 7.12432 3.72974 7.44368 4.07085 7.4965L4.26216 6.26123ZM7.27442 8.32283C7.59636 8.44733 7.95827 8.28726 8.08277 7.96532C8.20727 7.64337 8.0472 7.28146 7.72526 7.15696L7.27442 8.32283ZM4.26216 9.59456C3.92105 9.54173 3.60169 9.77543 3.54887 10.1165C3.49604 10.4577 3.72974 10.777 4.07085 10.8298L4.26216 9.59456ZM5.68028 11.1546C6.01497 11.2391 6.35474 11.0362 6.43918 10.7015C6.52362 10.3668 6.32076 10.0271 5.98606 9.94262L5.68028 11.1546ZM10.6248 5.04447C10.6248 4.6993 10.345 4.41947 9.99984 4.41947C9.65466 4.41947 9.37484 4.6993 9.37484 5.04447H10.6248ZM9.99984 17.5V18.125C10.345 18.125 10.6248 17.8452 10.6248 17.5H9.99984ZM3.32844 2.50939L3.39862 1.88835L3.32844 2.50939ZM9.43052 4.52037L9.78919 4.00853L9.78919 4.00853L9.43052 4.52037ZM3.32844 15.3103L3.39862 14.6892H3.39862L3.32844 15.3103ZM9.43052 17.3212L9.78919 16.8094L9.78919 16.8094L9.43052 17.3212ZM16.6712 2.50939L16.6011 1.88835L16.6712 2.50939ZM10.5691 4.52037L10.2105 4.00853V4.00853L10.5691 4.52037ZM17.7082 11.6667C17.7082 12.0118 17.988 12.2917 18.3332 12.2917C18.6783 12.2917 18.9582 12.0118 18.9582 11.6667H17.7082ZM17.4998 15.625C17.845 15.625 18.1248 15.3452 18.1248 15C18.1248 14.6548 17.845 14.375 17.4998 14.375V15.625ZM12.4998 14.375C12.1547 14.375 11.8748 14.6548 11.8748 15C11.8748 15.3452 12.1547 15.625 12.4998 15.625V14.375ZM14.3748 12.5V17.5H15.6248V12.5H14.3748ZM4.07085 7.4965C5.09483 7.65509 6.22555 7.91723 7.27442 8.32283L7.72526 7.15696C6.57043 6.71039 5.3478 6.42936 4.26216 6.26123L4.07085 7.4965ZM4.07085 10.8298C4.58689 10.9098 5.13161 11.0162 5.68028 11.1546L5.98606 9.94262C5.39523 9.79355 4.81193 9.67971 4.26216 9.59456L4.07085 10.8298ZM9.37484 5.04447V17.5H10.6248V5.04447H9.37484ZM3.25827 3.13044C5.07189 3.33538 7.43049 3.88206 9.07186 5.03222L9.78919 4.00853C7.89107 2.67847 5.28229 2.1012 3.39862 1.88835L3.25827 3.13044ZM3.25827 15.9313C5.07189 16.1363 7.43049 16.6829 9.07186 17.8331L9.78919 16.8094C7.89107 15.4793 5.28229 14.9021 3.39862 14.6892L3.25827 15.9313ZM1.0415 4.11265V13.5H2.2915V4.11265H1.0415ZM3.39862 14.6892C2.77381 14.6186 2.2915 14.0992 2.2915 13.5H1.0415C1.0415 14.786 2.05324 15.7951 3.25827 15.9313L3.39862 14.6892ZM3.39862 1.88835C2.05528 1.73655 1.0415 2.85774 1.0415 4.11265H2.2915C2.2915 3.4823 2.77176 3.07547 3.25827 3.13044L3.39862 1.88835ZM16.6011 1.88835C14.7174 2.1012 12.1086 2.67847 10.2105 4.00853L10.9278 5.03222C12.5692 3.88206 14.9278 3.33538 16.7414 3.13044L16.6011 1.88835ZM17.7082 4.11265V11.6667H18.9582V4.11265H17.7082ZM16.7414 3.13044C17.2279 3.07547 17.7082 3.4823 17.7082 4.11265H18.9582C18.9582 2.85774 17.9444 1.73655 16.6011 1.88835L16.7414 3.13044ZM9.07186 5.03222C9.6273 5.42143 10.3724 5.42143 10.9278 5.03222L10.2105 4.00853C10.0857 4.09599 9.91401 4.09599 9.78919 4.00853L9.07186 5.03222ZM9.07186 17.8331C9.35061 18.0284 9.67632 18.125 9.99984 18.125V16.875C9.92411 16.875 9.85057 16.8524 9.78919 16.8094L9.07186 17.8331ZM17.4998 14.375H12.4998V15.625H17.4998V14.375Z" fill="#131517"/>
</svg>
