<svg width="20" height="20" viewBox="0 0 20 20" fill="none" xmlns="http://www.w3.org/2000/svg">
<circle cx="9.99984" cy="9.99996" r="8.33333" stroke="#131517" stroke-width="1.25"/>
<path d="M12.2918 8.33333C12.2918 8.67851 12.012 8.95833 11.6668 8.95833C11.3217 8.95833 11.0418 8.67851 11.0418 8.33333H12.2918ZM10.0002 9.375C10.3453 9.375 10.6252 9.65482 10.6252 10C10.6252 10.3452 10.3453 10.625 10.0002 10.625V9.375ZM11.0418 8.33333C11.0418 7.75804 10.5755 7.29167 10.0002 7.29167V6.04167C11.2658 6.04167 12.2918 7.06768 12.2918 8.33333H11.0418ZM10.0002 7.29167C9.42487 7.29167 8.9585 7.75804 8.9585 8.33333H7.7085C7.7085 7.06768 8.73451 6.04167 10.0002 6.04167V7.29167ZM8.9585 8.33333C8.9585 8.90863 9.42487 9.375 10.0002 9.375V10.625C8.73451 10.625 7.7085 9.59899 7.7085 8.33333H8.9585Z" fill="#131517"/>
<path d="M10.0002 10.625C9.65498 10.625 9.37516 10.3452 9.37516 10C9.37516 9.65486 9.65498 9.37504 10.0002 9.37504V10.625ZM7.7085 11.6667C7.7085 11.3215 7.98832 11.0417 8.3335 11.0417C8.67867 11.0417 8.9585 11.3215 8.9585 11.6667H7.7085ZM11.0418 11.6667C11.0418 11.0914 10.5755 10.625 10.0002 10.625V9.37504C11.2658 9.37504 12.2918 10.4011 12.2918 11.6667H11.0418ZM8.9585 11.6667C8.9585 12.242 9.42487 12.7084 10.0002 12.7084V13.9584C8.73451 13.9584 7.7085 12.9324 7.7085 11.6667H8.9585ZM10.0002 12.7084C10.5755 12.7084 11.0418 12.242 11.0418 11.6667H12.2918C12.2918 12.9324 11.2658 13.9584 10.0002 13.9584V12.7084Z" fill="#131517"/>
<path d="M10 5.41663V6.66663" stroke="#131517" stroke-width="1.25" stroke-linecap="round" stroke-linejoin="round"/>
<path d="M10 13.3334V14.5834" stroke="#131517" stroke-width="1.25" stroke-linecap="round" stroke-linejoin="round"/>
</svg>
