<svg width="20" height="20" viewBox="0 0 20 20" fill="none" xmlns="http://www.w3.org/2000/svg">
<path d="M9.99984 4.16663H10.6248C10.6248 3.95001 10.5127 3.74885 10.3284 3.63497C10.1442 3.52109 9.91407 3.51074 9.72033 3.60761L9.99984 4.16663ZM9.37484 7.49996C9.37484 7.84514 9.65466 8.12496 9.99984 8.12496C10.345 8.12496 10.6248 7.84514 10.6248 7.49996H9.37484ZM8.887 4.02428C8.57826 4.17864 8.45312 4.55406 8.60749 4.8628C8.76186 5.17154 9.13728 5.29668 9.44601 5.14231L8.887 4.02428ZM9.1665 6.87496C8.82133 6.87496 8.5415 7.15478 8.5415 7.49996C8.5415 7.84514 8.82133 8.12496 9.1665 8.12496V6.87496ZM10.8332 8.12496C11.1783 8.12496 11.4582 7.84514 11.4582 7.49996C11.4582 7.15478 11.1783 6.87496 10.8332 6.87496V8.12496ZM3.33317 10.625H8.33317V9.37496H3.33317V10.625ZM9.37484 11.6666V16.6666H10.6248V11.6666H9.37484ZM8.33317 17.7083H3.33317V18.9583H8.33317V17.7083ZM2.2915 16.6666V11.6666H1.0415V16.6666H2.2915ZM3.33317 17.7083C2.75787 17.7083 2.2915 17.2419 2.2915 16.6666H1.0415C1.0415 17.9323 2.06752 18.9583 3.33317 18.9583V17.7083ZM9.37484 16.6666C9.37484 17.2419 8.90847 17.7083 8.33317 17.7083V18.9583C9.59882 18.9583 10.6248 17.9323 10.6248 16.6666H9.37484ZM8.33317 10.625C8.90847 10.625 9.37484 11.0913 9.37484 11.6666H10.6248C10.6248 10.401 9.59882 9.37496 8.33317 9.37496V10.625ZM3.33317 9.37496C2.06752 9.37496 1.0415 10.401 1.0415 11.6666H2.2915C2.2915 11.0913 2.75787 10.625 3.33317 10.625V9.37496ZM11.6665 10.625H16.6665V9.37496H11.6665V10.625ZM17.7082 11.6666V16.6666H18.9582V11.6666H17.7082ZM16.6665 17.7083H11.6665V18.9583H16.6665V17.7083ZM11.6665 17.7083C11.0912 17.7083 10.6248 17.2419 10.6248 16.6666H9.37484C9.37484 17.9323 10.4009 18.9583 11.6665 18.9583V17.7083ZM17.7082 16.6666C17.7082 17.2419 17.2418 17.7083 16.6665 17.7083V18.9583C17.9322 18.9583 18.9582 17.9323 18.9582 16.6666H17.7082ZM16.6665 10.625C17.2418 10.625 17.7082 11.0913 17.7082 11.6666H18.9582C18.9582 10.401 17.9322 9.37496 16.6665 9.37496V10.625ZM11.6665 9.37496C10.4009 9.37496 9.37484 10.401 9.37484 11.6666H10.6248C10.6248 11.0913 11.0912 10.625 11.6665 10.625V9.37496ZM7.49984 2.29163H12.4998V1.04163H7.49984V2.29163ZM13.5415 3.33329V8.33329H14.7915V3.33329H13.5415ZM12.4998 9.37496H7.49984V10.625H12.4998V9.37496ZM6.45817 8.33329V3.33329H5.20817V8.33329H6.45817ZM7.49984 9.37496C6.92454 9.37496 6.45817 8.90859 6.45817 8.33329H5.20817C5.20817 9.59895 6.23418 10.625 7.49984 10.625V9.37496ZM13.5415 8.33329C13.5415 8.90859 13.0751 9.37496 12.4998 9.37496V10.625C13.7655 10.625 14.7915 9.59895 14.7915 8.33329H13.5415ZM12.4998 2.29163C13.0751 2.29163 13.5415 2.758 13.5415 3.33329H14.7915C14.7915 2.06764 13.7655 1.04163 12.4998 1.04163V2.29163ZM7.49984 1.04163C6.23418 1.04163 5.20817 2.06764 5.20817 3.33329H6.45817C6.45817 2.758 6.92454 2.29163 7.49984 2.29163V1.04163ZM9.37484 4.16663V7.49996H10.6248V4.16663H9.37484ZM9.72033 3.60761L8.887 4.02428L9.44601 5.14231L10.2793 4.72564L9.72033 3.60761ZM9.1665 8.12496H10.8332V6.87496H9.1665V8.12496Z" fill="#131517"/>
</svg>
