<svg width="20" height="20" viewBox="0 0 20 20" fill="none" xmlns="http://www.w3.org/2000/svg">
<path d="M7.2915 1.66675C7.2915 1.32157 7.01168 1.04175 6.6665 1.04175C6.32133 1.04175 6.0415 1.32157 6.0415 1.66675H7.2915ZM6.0415 18.3334C6.0415 18.6786 6.32133 18.9584 6.6665 18.9584C7.01168 18.9584 7.2915 18.6786 7.2915 18.3334H6.0415ZM4.99984 2.29175H14.9998V1.04175H4.99984V2.29175ZM17.7082 5.00008V15.0001H18.9582V5.00008H17.7082ZM14.9998 17.7084H4.99984V18.9584H14.9998V17.7084ZM2.2915 15.0001V5.00008H1.0415V15.0001H2.2915ZM4.99984 17.7084C3.50407 17.7084 2.2915 16.4959 2.2915 15.0001H1.0415C1.0415 17.1862 2.81371 18.9584 4.99984 18.9584V17.7084ZM17.7082 15.0001C17.7082 16.4959 16.4956 17.7084 14.9998 17.7084V18.9584C17.186 18.9584 18.9582 17.1862 18.9582 15.0001H17.7082ZM14.9998 2.29175C16.4956 2.29175 17.7082 3.50431 17.7082 5.00008H18.9582C18.9582 2.81395 17.186 1.04175 14.9998 1.04175V2.29175ZM4.99984 1.04175C2.81371 1.04175 1.0415 2.81395 1.0415 5.00008H2.2915C2.2915 3.50431 3.50407 2.29175 4.99984 2.29175V1.04175ZM6.0415 1.66675V18.3334H7.2915V1.66675H6.0415Z" fill="#131517"/>
</svg>
