<svg width="20" height="20" viewBox="0 0 20 20" fill="none" xmlns="http://www.w3.org/2000/svg">
<path d="M15.7419 6.38694L16.0891 5.86723L15.7419 6.38694ZM10.9244 13.6131L10.5773 14.1329L10.9244 13.6131ZM8.66643 14L9.16614 14.3754L8.66643 14ZM4.66658 11.0001L4.16687 10.6247L4.66658 11.0001ZM3.33317 11.0417C2.75787 11.0417 2.2915 10.5753 2.2915 10H1.0415C1.0415 11.2657 2.06752 12.2917 3.33317 12.2917V11.0417ZM2.2915 10C2.2915 9.42474 2.75787 8.95837 3.33317 8.95837V7.70837C2.06752 7.70837 1.0415 8.73439 1.0415 10H2.2915ZM3.33317 8.95837C3.90847 8.95837 4.37484 9.42474 4.37484 10H5.62484C5.62484 8.73439 4.59882 7.70837 3.33317 7.70837V8.95837ZM11.0415 15C11.0415 15.5753 10.5751 16.0417 9.99984 16.0417V17.2917C11.2655 17.2917 12.2915 16.2657 12.2915 15H11.0415ZM9.99984 16.0417C9.42454 16.0417 8.95817 15.5753 8.95817 15H7.70817C7.70817 16.2657 8.73418 17.2917 9.99984 17.2917V16.0417ZM17.7082 5.00004C17.7082 5.57534 17.2418 6.04171 16.6665 6.04171V7.29171C17.9322 7.29171 18.9582 6.26569 18.9582 5.00004H17.7082ZM15.6248 5.00004C15.6248 4.42474 16.0912 3.95837 16.6665 3.95837V2.70837C15.4009 2.70837 14.3748 3.73439 14.3748 5.00004H15.6248ZM16.6665 3.95837C17.2418 3.95837 17.7082 4.42474 17.7082 5.00004H18.9582C18.9582 3.73439 17.9322 2.70837 16.6665 2.70837V3.95837ZM16.6665 6.04171C16.4518 6.04171 16.2541 5.97745 16.0891 5.86723L15.3947 6.90665C15.7589 7.14989 16.1971 7.29171 16.6665 7.29171V6.04171ZM16.0891 5.86723C15.8079 5.67938 15.6248 5.36096 15.6248 5.00004H14.3748C14.3748 5.79598 14.7811 6.49676 15.3947 6.90665L16.0891 5.86723ZM11.4445 13.9598L16.2619 6.73363L15.2219 6.04025L10.4044 13.2665L11.4445 13.9598ZM9.99984 13.9584C10.2145 13.9584 10.4123 14.0226 10.5773 14.1329L11.2716 13.0934C10.9075 12.8502 10.4693 12.7084 9.99984 12.7084V13.9584ZM10.5773 14.1329C10.8585 14.3207 11.0415 14.6391 11.0415 15H12.2915C12.2915 14.2041 11.8852 13.5033 11.2716 13.0934L10.5773 14.1329ZM8.95817 15C8.95817 14.7648 9.0354 14.5494 9.16614 14.3754L8.16671 13.6246C7.87894 14.0077 7.70817 14.4848 7.70817 15H8.95817ZM9.16614 14.3754C9.35724 14.121 9.65946 13.9584 9.99984 13.9584V12.7084C9.24972 12.7084 8.58375 13.0694 8.16671 13.6246L9.16614 14.3754ZM9.04143 13.5L5.04158 10.5001L4.29158 11.5001L8.29143 14.5L9.04143 13.5ZM4.37484 10C4.37484 10.2353 4.29761 10.4507 4.16687 10.6247L5.16629 11.3755C5.45407 10.9924 5.62484 10.5153 5.62484 10H4.37484ZM4.16687 10.6247C3.97577 10.8791 3.67355 11.0417 3.33317 11.0417V12.2917C4.08329 12.2917 4.74926 11.9306 5.16629 11.3755L4.16687 10.6247Z" fill="#131517"/>
</svg>
