<svg width="20" height="20" viewBox="0 0 20 20" fill="none" xmlns="http://www.w3.org/2000/svg">
<path d="M15.3331 6.0001L15.8328 5.62472L15.3331 6.0001ZM11.3332 8.99998L10.8335 9.37536L11.3332 8.99998ZM8.66643 11.0001L9.16614 10.6247L8.66643 11.0001ZM4.66658 14L4.16687 14.3754L4.66658 14ZM17.7082 5.00004C17.7082 5.57534 17.2418 6.04171 16.6665 6.04171V7.29171C17.9322 7.29171 18.9582 6.26569 18.9582 5.00004H17.7082ZM15.6248 5.00004C15.6248 4.42474 16.0912 3.95837 16.6665 3.95837V2.70837C15.4009 2.70837 14.3748 3.73439 14.3748 5.00004H15.6248ZM16.6665 3.95837C17.2418 3.95837 17.7082 4.42474 17.7082 5.00004H18.9582C18.9582 3.73439 17.9322 2.70837 16.6665 2.70837V3.95837ZM11.0415 10C11.0415 10.5753 10.5751 11.0417 9.99984 11.0417V12.2917C11.2655 12.2917 12.2915 11.2657 12.2915 10H11.0415ZM8.95817 10C8.95817 9.42474 9.42454 8.95837 9.99984 8.95837V7.70837C8.73418 7.70837 7.70817 8.73439 7.70817 10H8.95817ZM4.37484 15C4.37484 15.5753 3.90847 16.0417 3.33317 16.0417V17.2917C4.59882 17.2917 5.62484 16.2657 5.62484 15H4.37484ZM3.33317 16.0417C2.75787 16.0417 2.2915 15.5753 2.2915 15H1.0415C1.0415 16.2657 2.06752 17.2917 3.33317 17.2917V16.0417ZM2.2915 15C2.2915 14.4247 2.75787 13.9584 3.33317 13.9584V12.7084C2.06752 12.7084 1.0415 13.7344 1.0415 15H2.2915ZM16.6665 6.04171C16.3261 6.04171 16.0239 5.87911 15.8328 5.62472L14.8334 6.37548C15.2504 6.93065 15.9164 7.29171 16.6665 7.29171V6.04171ZM15.8328 5.62472C15.7021 5.45067 15.6248 5.23528 15.6248 5.00004H14.3748C14.3748 5.51526 14.5456 5.9924 14.8334 6.37548L15.8328 5.62472ZM14.9581 5.5001L10.9582 8.49998L11.7082 9.49998L15.7081 6.5001L14.9581 5.5001ZM9.99984 8.95837C10.3402 8.95837 10.6424 9.12097 10.8335 9.37536L11.833 8.6246C11.4159 8.06943 10.75 7.70837 9.99984 7.70837V8.95837ZM10.8335 9.37536C10.9643 9.54941 11.0415 9.7648 11.0415 10H12.2915C12.2915 9.48482 12.1207 9.00768 11.833 8.6246L10.8335 9.37536ZM9.99984 11.0417C9.65946 11.0417 9.35724 10.8791 9.16614 10.6247L8.16671 11.3755C8.58375 11.9306 9.24972 12.2917 9.99984 12.2917V11.0417ZM9.16614 10.6247C9.0354 10.4507 8.95817 10.2353 8.95817 10H7.70817C7.70817 10.5153 7.87894 10.9924 8.16671 11.3755L9.16614 10.6247ZM8.29143 10.5001L4.29158 13.5L5.04158 14.5L9.04143 11.5001L8.29143 10.5001ZM3.33317 13.9584C3.67355 13.9584 3.97577 14.121 4.16687 14.3754L5.16629 13.6246C4.74926 13.0694 4.08329 12.7084 3.33317 12.7084V13.9584ZM4.16687 14.3754C4.29761 14.5494 4.37484 14.7648 4.37484 15H5.62484C5.62484 14.4848 5.45407 14.0077 5.16629 13.6246L4.16687 14.3754Z" fill="#131517"/>
</svg>
