<svg width="20" height="20" viewBox="0 0 20 20" fill="none" xmlns="http://www.w3.org/2000/svg">
<path d="M8.33317 4.375C7.98799 4.375 7.70817 4.65482 7.70817 5C7.70817 5.34518 7.98799 5.625 8.33317 5.625V4.375ZM13.3332 5.625C13.6783 5.625 13.9582 5.34518 13.9582 5C13.9582 4.65482 13.6783 4.375 13.3332 4.375V5.625ZM8.33317 11.0417C7.98799 11.0417 7.70817 11.3215 7.70817 11.6667C7.70817 12.0118 7.98799 12.2917 8.33317 12.2917V11.0417ZM13.3332 12.2917C13.6783 12.2917 13.9582 12.0118 13.9582 11.6667C13.9582 11.3215 13.6783 11.0417 13.3332 11.0417V12.2917ZM8.33317 7.70833C7.98799 7.70833 7.70817 7.98816 7.70817 8.33333C7.70817 8.67851 7.98799 8.95833 8.33317 8.95833V7.70833ZM18.3332 8.95833C18.6783 8.95833 18.9582 8.67851 18.9582 8.33333C18.9582 7.98816 18.6783 7.70833 18.3332 7.70833V8.95833ZM8.33317 14.375C7.98799 14.375 7.70817 14.6548 7.70817 15C7.70817 15.3452 7.98799 15.625 8.33317 15.625V14.375ZM18.3332 15.625C18.6783 15.625 18.9582 15.3452 18.9582 15C18.9582 14.6548 18.6783 14.375 18.3332 14.375V15.625ZM3.33317 7.70833C2.75787 7.70833 2.2915 7.24196 2.2915 6.66667H1.0415C1.0415 7.93232 2.06752 8.95833 3.33317 8.95833L3.33317 7.70833ZM2.2915 6.66667C2.2915 6.09137 2.75787 5.625 3.33317 5.625V4.375C2.06752 4.375 1.0415 5.40101 1.0415 6.66667H2.2915ZM3.33317 5.625C3.90847 5.625 4.37484 6.09137 4.37484 6.66667H5.62484C5.62484 5.40101 4.59882 4.375 3.33317 4.375V5.625ZM4.37484 6.66667C4.37484 7.24196 3.90847 7.70833 3.33317 7.70833L3.33317 8.95833C4.59882 8.95833 5.62484 7.93232 5.62484 6.66667H4.37484ZM3.33317 14.375C2.75787 14.375 2.2915 13.9086 2.2915 13.3333H1.0415C1.0415 14.599 2.06752 15.625 3.33317 15.625L3.33317 14.375ZM2.2915 13.3333C2.2915 12.758 2.75787 12.2917 3.33317 12.2917V11.0417C2.06752 11.0417 1.0415 12.0677 1.0415 13.3333H2.2915ZM3.33317 12.2917C3.90847 12.2917 4.37484 12.758 4.37484 13.3333H5.62484C5.62484 12.0677 4.59882 11.0417 3.33317 11.0417V12.2917ZM4.37484 13.3333C4.37484 13.9086 3.90847 14.375 3.33317 14.375L3.33317 15.625C4.59882 15.625 5.62484 14.599 5.62484 13.3333H4.37484ZM8.33317 5.625H13.3332V4.375H8.33317V5.625ZM8.33317 12.2917H13.3332V11.0417H8.33317V12.2917ZM8.33317 8.95833H18.3332V7.70833H8.33317V8.95833ZM8.33317 15.625H18.3332V14.375H8.33317V15.625Z" fill="#131517"/>
</svg>
