<svg width="20" height="20" viewBox="0 0 20 20" fill="none" xmlns="http://www.w3.org/2000/svg">
<path d="M13.9582 1.66675C13.9582 1.32157 13.6783 1.04175 13.3332 1.04175C12.988 1.04175 12.7082 1.32157 12.7082 1.66675H13.9582ZM12.7082 18.3334C12.7082 18.6786 12.988 18.9584 13.3332 18.9584C13.6783 18.9584 13.9582 18.6786 13.9582 18.3334H12.7082ZM14.9998 1.04175H4.99984V2.29175H14.9998V1.04175ZM1.0415 5.00008V15.0001H2.2915V5.00008H1.0415ZM4.99984 18.9584H14.9998V17.7084H4.99984V18.9584ZM18.9582 15.0001V5.00008H17.7082V15.0001H18.9582ZM14.9998 18.9584C17.186 18.9584 18.9582 17.1862 18.9582 15.0001H17.7082C17.7082 16.4959 16.4956 17.7084 14.9998 17.7084V18.9584ZM1.0415 15.0001C1.0415 17.1862 2.81371 18.9584 4.99984 18.9584V17.7084C3.50407 17.7084 2.2915 16.4959 2.2915 15.0001H1.0415ZM4.99984 1.04175C2.81371 1.04175 1.0415 2.81395 1.0415 5.00008H2.2915C2.2915 3.50431 3.50407 2.29175 4.99984 2.29175V1.04175ZM14.9998 2.29175C16.4956 2.29175 17.7082 3.50431 17.7082 5.00008H18.9582C18.9582 2.81395 17.186 1.04175 14.9998 1.04175V2.29175ZM12.7082 1.66675V18.3334H13.9582V1.66675H12.7082Z" fill="#131517"/>
</svg>
