<svg width="20" height="20" viewBox="0 0 20 20" fill="none" xmlns="http://www.w3.org/2000/svg">
<path d="M10.6248 5.04447C10.6248 4.6993 10.345 4.41947 9.99984 4.41947C9.65466 4.41947 9.37484 4.6993 9.37484 5.04447H10.6248ZM9.37484 16.9187C9.37484 17.2639 9.65466 17.5437 9.99984 17.5437C10.345 17.5437 10.6248 17.2639 10.6248 16.9187H9.37484ZM3.32844 2.50939L3.39862 1.88835L3.32844 2.50939ZM9.43052 4.52037L9.78919 4.00853L9.78919 4.00853L9.43052 4.52037ZM3.32844 15.3103L3.39862 14.6892L3.32844 15.3103ZM9.43052 17.3212L9.78919 16.8094H9.78919L9.43052 17.3212ZM16.6712 2.50939L16.6011 1.88835L16.6712 2.50939ZM10.5691 4.52037L10.2105 4.00853V4.00853L10.5691 4.52037ZM16.6712 15.3103L16.6011 14.6892L16.6712 15.3103ZM10.5691 17.3212L10.2105 16.8094H10.2105L10.5691 17.3212ZM4.26216 6.26123C3.92105 6.2084 3.60169 6.4421 3.54887 6.78321C3.49604 7.12432 3.72974 7.44368 4.07085 7.4965L4.26216 6.26123ZM7.27442 8.32283C7.59636 8.44733 7.95827 8.28726 8.08277 7.96532C8.20727 7.64337 8.0472 7.28146 7.72526 7.15696L7.27442 8.32283ZM4.26216 9.59456C3.92105 9.54173 3.60169 9.77543 3.54887 10.1165C3.49604 10.4577 3.72974 10.777 4.07085 10.8298L4.26216 9.59456ZM5.68028 11.1546C6.01497 11.2391 6.35474 11.0362 6.43918 10.7015C6.52362 10.3668 6.32076 10.0271 5.98606 9.94262L5.68028 11.1546ZM9.37484 5.04447V16.9187H10.6248V5.04447H9.37484ZM3.25827 3.13044C5.07189 3.33538 7.43049 3.88206 9.07186 5.03222L9.78919 4.00853C7.89107 2.67847 5.28229 2.1012 3.39862 1.88835L3.25827 3.13044ZM3.25827 15.9313C5.07189 16.1363 7.43049 16.6829 9.07186 17.8331L9.78919 16.8094C7.89107 15.4793 5.28229 14.9021 3.39862 14.6892L3.25827 15.9313ZM1.0415 4.11265V13.5H2.2915V4.11265H1.0415ZM3.39862 14.6892C2.77381 14.6186 2.2915 14.0992 2.2915 13.5H1.0415C1.0415 14.786 2.05324 15.7951 3.25827 15.9313L3.39862 14.6892ZM3.39862 1.88835C2.05528 1.73655 1.0415 2.85774 1.0415 4.11265H2.2915C2.2915 3.4823 2.77176 3.07547 3.25827 3.13044L3.39862 1.88835ZM16.6011 1.88835C14.7174 2.1012 12.1086 2.67847 10.2105 4.00853L10.9278 5.03222C12.5692 3.88206 14.9278 3.33538 16.7414 3.13044L16.6011 1.88835ZM16.6011 14.6892C14.7174 14.9021 12.1086 15.4793 10.2105 16.8094L10.9278 17.8331C12.5692 16.6829 14.9278 16.1363 16.7414 15.9313L16.6011 14.6892ZM17.7082 4.11265V13.5H18.9582V4.11265H17.7082ZM16.7414 15.9313C17.9464 15.7951 18.9582 14.786 18.9582 13.5H17.7082C17.7082 14.0992 17.2259 14.6186 16.6011 14.6892L16.7414 15.9313ZM16.7414 3.13044C17.2279 3.07547 17.7082 3.4823 17.7082 4.11265H18.9582C18.9582 2.85774 17.9444 1.73655 16.6011 1.88835L16.7414 3.13044ZM9.07186 17.8331C9.6273 18.2223 10.3724 18.2223 10.9278 17.8331L10.2105 16.8094C10.0857 16.8969 9.91401 16.8969 9.78919 16.8094L9.07186 17.8331ZM9.07186 5.03222C9.6273 5.42143 10.3724 5.42143 10.9278 5.03222L10.2105 4.00853C10.0857 4.09599 9.91401 4.09599 9.78919 4.00853L9.07186 5.03222ZM4.07085 7.4965C5.09483 7.65509 6.22555 7.91723 7.27442 8.32283L7.72526 7.15696C6.57043 6.71039 5.3478 6.42936 4.26216 6.26123L4.07085 7.4965ZM4.07085 10.8298C4.58689 10.9098 5.13161 11.0162 5.68028 11.1546L5.98606 9.94262C5.39523 9.79355 4.81193 9.67971 4.26216 9.59456L4.07085 10.8298Z" fill="#131517"/>
</svg>
