<svg width="20" height="20" viewBox="0 0 20 20" fill="none" xmlns="http://www.w3.org/2000/svg">
<path d="M17.2866 13.1005L16.7536 12.7741L16.7536 12.7741L17.2866 13.1005ZM16.4911 14.3995L17.0241 14.7259L17.0241 14.7259L16.4911 14.3995ZM2.71341 6.89951L2.1804 6.57313L2.1804 6.57313L2.71341 6.89951ZM3.50887 5.60048L4.04187 5.92686L4.04188 5.92686L3.50887 5.60048ZM5.6821 5.05144L5.98091 4.5025L5.98091 4.5025L5.6821 5.05144ZM3.29572 8.94855L2.99691 9.49749L2.99691 9.49749L3.29572 8.94855ZM14.3179 14.9486L14.0191 15.4975L14.0191 15.4975L14.3179 14.9486ZM16.7043 11.0514L16.4055 11.6004L16.4055 11.6004L16.7043 11.0514ZM3.50887 14.3995L2.97586 14.7259L2.97586 14.7259L3.50887 14.3995ZM2.71341 13.1005L3.24642 12.7741L3.24642 12.7741L2.71341 13.1005ZM16.4911 5.60049L17.0241 5.2741L17.0241 5.2741L16.4911 5.60049ZM17.2866 6.89952L16.7536 7.22591L16.7536 7.22591L17.2866 6.89952ZM16.7043 8.94856L17.0031 9.4975L17.0031 9.4975L16.7043 8.94856ZM14.3179 5.05145L14.6167 5.60039L14.6167 5.60039L14.3179 5.05145ZM3.29572 11.0514L3.59454 11.6004L3.59454 11.6004L3.29572 11.0514ZM5.6821 14.9486L5.38328 14.3996L5.38328 14.3996L5.6821 14.9486ZM14.2333 5.09748L13.9345 4.54854L13.9345 4.54854L14.2333 5.09748ZM5.76667 5.09747L5.46785 5.64641L5.46785 5.64641L5.76667 5.09747ZM14.2333 14.9025L14.5322 14.3536L14.5322 14.3536L14.2333 14.9025ZM5.76667 14.9025L6.06548 15.4515L6.06548 15.4515L5.76667 14.9025ZM9.20454 3.125H10.7955V1.875H9.20454V3.125ZM10.7955 16.875H9.20454V18.125H10.7955V16.875ZM9.20454 16.875C8.63592 16.875 8.23863 16.4491 8.23863 16H6.98863C6.98863 17.2077 8.01588 18.125 9.20454 18.125V16.875ZM11.7614 16C11.7614 16.4491 11.3641 16.875 10.7955 16.875V18.125C11.9841 18.125 13.0114 17.2077 13.0114 16H11.7614ZM10.7955 3.125C11.3641 3.125 11.7614 3.55089 11.7614 4H13.0114C13.0114 2.79225 11.9841 1.875 10.7955 1.875V3.125ZM9.20454 1.875C8.01588 1.875 6.98863 2.79226 6.98863 4H8.23863C8.23863 3.55089 8.63592 3.125 9.20454 3.125V1.875ZM16.7536 12.7741L15.9581 14.0731L17.0241 14.7259L17.8196 13.4269L16.7536 12.7741ZM3.24642 7.2259L4.04187 5.92686L2.97586 5.27409L2.1804 6.57313L3.24642 7.2259ZM4.04188 5.92686C4.29907 5.50684 4.90046 5.33755 5.38328 5.60038L5.98091 4.5025C4.94189 3.9369 3.5973 4.25924 2.97586 5.27409L4.04188 5.92686ZM3.59454 8.39961C3.13122 8.1474 3.00358 7.62247 3.24642 7.2259L2.1804 6.57313C1.5446 7.61144 1.93838 8.92128 2.99691 9.49749L3.59454 8.39961ZM15.9581 14.0731C15.7009 14.4932 15.0995 14.6624 14.6167 14.3996L14.0191 15.4975C15.0581 16.0631 16.4027 15.7408 17.0241 14.7259L15.9581 14.0731ZM17.8196 13.4269C18.4554 12.3886 18.0616 11.0787 17.0031 10.5025L16.4055 11.6004C16.8688 11.8526 16.9964 12.3775 16.7536 12.7741L17.8196 13.4269ZM4.04187 14.0731L3.24642 12.7741L2.1804 13.4269L2.97586 14.7259L4.04187 14.0731ZM15.9581 5.92687L16.7536 7.22591L17.8196 6.57314L17.0241 5.2741L15.9581 5.92687ZM16.7536 7.22591C16.9964 7.62248 16.8688 8.14741 16.4055 8.39962L17.0031 9.4975C18.0616 8.92129 18.4554 7.61145 17.8196 6.57314L16.7536 7.22591ZM14.6167 5.60039C15.0995 5.33756 15.7009 5.50685 15.9581 5.92687L17.0241 5.2741C16.4027 4.25925 15.0581 3.93691 14.0191 4.50251L14.6167 5.60039ZM3.24642 12.7741C3.00358 12.3775 3.13122 11.8526 3.59454 11.6004L2.99691 10.5025C1.93838 11.0787 1.5446 12.3886 2.1804 13.4269L3.24642 12.7741ZM2.97586 14.7259C3.5973 15.7408 4.94189 16.0631 5.98091 15.4975L5.38328 14.3996C4.90046 14.6625 4.29907 14.4932 4.04187 14.0731L2.97586 14.7259ZM14.5322 5.64642L14.6167 5.60039L14.0191 4.50251L13.9345 4.54854L14.5322 5.64642ZM5.38328 5.60037L5.46785 5.64641L6.06549 4.54854L5.98091 4.5025L5.38328 5.60037ZM14.6167 14.3996L14.5322 14.3536L13.9345 15.4515L14.0191 15.4975L14.6167 14.3996ZM5.46785 14.3536L5.38328 14.3996L5.98091 15.4975L6.06548 15.4515L5.46785 14.3536ZM2.99691 9.49749C3.39503 9.71421 3.39503 10.2858 2.9969 10.5025L3.59454 11.6004C4.86248 10.9102 4.86249 9.08983 3.59454 8.39961L2.99691 9.49749ZM6.06548 15.4515C6.48165 15.2249 6.98863 15.5262 6.98863 16H8.23863C8.23863 14.5778 6.71696 13.6736 5.46785 14.3536L6.06548 15.4515ZM13.0114 16C13.0114 15.5262 13.5184 15.2249 13.9345 15.4515L14.5322 14.3536C13.283 13.6736 11.7614 14.5778 11.7614 16H13.0114ZM17.0031 10.5025C16.605 10.2858 16.605 9.71422 17.0031 9.4975L16.4055 8.39962C15.1375 9.08983 15.1375 10.9102 16.4055 11.6004L17.0031 10.5025ZM5.46785 5.64641C6.71696 6.32637 8.23863 5.42219 8.23863 4H6.98863C6.98863 4.47383 6.48165 4.77508 6.06549 4.54854L5.46785 5.64641ZM13.9345 4.54854C13.5184 4.77509 13.0114 4.47384 13.0114 4H11.7614C11.7614 5.42219 13.283 6.32638 14.5322 5.64642L13.9345 4.54854ZM11.875 10C11.875 11.0355 11.0355 11.875 10 11.875V13.125C11.7259 13.125 13.125 11.7259 13.125 10H11.875ZM10 11.875C8.96447 11.875 8.12501 11.0355 8.12501 10H6.87501C6.87501 11.7259 8.27412 13.125 10 13.125V11.875ZM8.12501 10C8.12501 8.96447 8.96447 8.125 10 8.125V6.875C8.27412 6.875 6.87501 8.27411 6.87501 10H8.12501ZM10 8.125C11.0355 8.125 11.875 8.96447 11.875 10H13.125C13.125 8.27411 11.7259 6.875 10 6.875V8.125Z" fill="#131517"/>
</svg>
