<svg width="20" height="20" viewBox="0 0 20 20" fill="none" xmlns="http://www.w3.org/2000/svg">
<path d="M2.86637 4.89725C2.63704 5.15524 2.66028 5.55029 2.91827 5.77961C3.17626 6.00893 3.5713 5.9857 3.80063 5.72771L2.86637 4.89725ZM4.58781 3.90137L4.12068 3.48614L4.12068 3.48614L4.58781 3.90137ZM7.07918 3.90137L7.54631 3.48614L7.54631 3.48614L7.07918 3.90137ZM7.07918 16.0986L7.54631 16.5138L7.54631 16.5138L7.07918 16.0986ZM8.80063 15.1027C9.02995 14.8447 9.00671 14.4497 8.74872 14.2203C8.49073 13.991 8.09569 14.0143 7.86637 14.2723L8.80063 15.1027ZM4.58781 16.0986L4.12068 16.5138L4.12068 16.5138L4.58781 16.0986ZM3.80063 14.2723C3.5713 14.0143 3.17626 13.991 2.91827 14.2203C2.66028 14.4497 2.63704 14.8447 2.86637 15.1027L3.80063 14.2723ZM3.80063 5.72771L5.05494 4.3166L4.12068 3.48614L2.86637 4.89725L3.80063 5.72771ZM6.61205 4.3166L7.86637 5.72771L8.80063 4.89725L7.54631 3.48614L6.61205 4.3166ZM7.54631 16.5138L8.80063 15.1027L7.86637 14.2723L6.61205 15.6834L7.54631 16.5138ZM5.05494 15.6834L3.80063 14.2723L2.86637 15.1027L4.12068 16.5138L5.05494 15.6834ZM6.61205 15.6834C6.19768 16.1495 5.46931 16.1495 5.05494 15.6834L4.12068 16.5138C5.03229 17.5394 6.6347 17.5394 7.54631 16.5138L6.61205 15.6834ZM5.05494 4.3166C5.46931 3.85044 6.19768 3.85044 6.61205 4.3166L7.54631 3.48614C6.6347 2.46059 5.03229 2.46059 4.12068 3.48614L5.05494 4.3166ZM14.1668 7.70831C13.1313 7.70831 12.2918 6.86885 12.2918 5.83331H11.0418C11.0418 7.5592 12.4409 8.95831 14.1668 8.95831V7.70831ZM16.0418 5.83331C16.0418 6.86885 15.2024 7.70831 14.1668 7.70831V8.95831C15.8927 8.95831 17.2918 7.5592 17.2918 5.83331H16.0418ZM14.1668 3.95831C15.2024 3.95831 16.0418 4.79778 16.0418 5.83331H17.2918C17.2918 4.10742 15.8927 2.70831 14.1668 2.70831V3.95831ZM14.1668 2.70831C12.4409 2.70831 11.0418 4.10742 11.0418 5.83331H12.2918C12.2918 4.79778 13.1313 3.95831 14.1668 3.95831V2.70831ZM14.1668 16.0416C13.1313 16.0416 12.2918 15.2022 12.2918 14.1666H11.0418C11.0418 15.8925 12.4409 17.2916 14.1668 17.2916V16.0416ZM16.0418 14.1666C16.0418 15.2022 15.2024 16.0416 14.1668 16.0416V17.2916C15.8927 17.2916 17.2918 15.8925 17.2918 14.1666H16.0418ZM14.1668 12.2916C15.2024 12.2916 16.0418 13.1311 16.0418 14.1666H17.2918C17.2918 12.4408 15.8927 11.0416 14.1668 11.0416V12.2916ZM14.1668 11.0416C12.4409 11.0416 11.0418 12.4408 11.0418 14.1666H12.2918C12.2918 13.1311 13.1313 12.2916 14.1668 12.2916V11.0416ZM5.2085 3.33331V16.6666H6.4585V3.33331H5.2085Z" fill="#131517"/>
</svg>
