<svg width="20" height="20" viewBox="0 0 20 20" fill="none" xmlns="http://www.w3.org/2000/svg">
<ellipse cx="10" cy="13.7501" rx="5" ry="2.08333" stroke="#131517" stroke-width="1.25" stroke-linejoin="round"/>
<circle cx="10" cy="6.66675" r="2.5" stroke="#131517" stroke-width="1.25" stroke-linejoin="round"/>
<path fill-rule="evenodd" clip-rule="evenodd" d="M5.37122 11.0512C4.33907 11.0942 3.39094 11.2801 2.65494 11.5745C2.23435 11.7428 1.85204 11.9587 1.56466 12.2305C1.27596 12.5035 1.04167 12.876 1.04167 13.3333C1.04167 13.7907 1.27596 14.1631 1.56466 14.4362C1.85204 14.708 2.23435 14.9239 2.65494 15.0921C3.07143 15.2587 3.55584 15.3906 4.08497 15.4815C3.67362 15.0377 3.41543 14.5419 3.34988 14.0163C3.26951 13.9892 3.19253 13.9609 3.11917 13.9315C2.78574 13.7982 2.55785 13.655 2.42355 13.528C2.2915 13.4031 2.29166 13.3372 2.29167 13.3334L2.29167 13.3333L2.29167 13.3333C2.29166 13.3295 2.2915 13.2636 2.42355 13.1387C2.55785 13.0117 2.78574 12.8685 3.11917 12.7351C3.28831 12.6675 3.47667 12.6055 3.68156 12.5507C4.02631 11.9758 4.61206 11.4633 5.37122 11.0512Z" fill="#131517"/>
<path fill-rule="evenodd" clip-rule="evenodd" d="M16.6501 14.0163C16.5846 14.5419 16.3264 15.0377 15.915 15.4815C16.4442 15.3906 16.9286 15.2587 17.3451 15.0921C17.7657 14.9239 18.148 14.708 18.4353 14.4362C18.724 14.1631 18.9583 13.7907 18.9583 13.3333C18.9583 12.876 18.724 12.5035 18.4353 12.2305C18.148 11.9587 17.7657 11.7428 17.3451 11.5745C16.6091 11.2801 15.6609 11.0942 14.6288 11.0512C15.3879 11.4633 15.9737 11.9758 16.3184 12.5507C16.5233 12.6055 16.7117 12.6675 16.8808 12.7351C17.2143 12.8685 17.4421 13.0117 17.5765 13.1387C17.7085 13.2636 17.7083 13.3295 17.7083 13.3333V13.3333V13.3334C17.7083 13.3372 17.7085 13.4031 17.5765 13.528C17.4421 13.655 17.2143 13.7982 16.8808 13.9315C16.8075 13.9609 16.7305 13.9892 16.6501 14.0163Z" fill="#131517"/>
<path fill-rule="evenodd" clip-rule="evenodd" d="M13.762 8.46014C13.5788 8.84382 13.3385 9.19508 13.0523 9.50297C13.3822 9.68688 13.7622 9.79167 14.1667 9.79167C15.4323 9.79167 16.4583 8.76565 16.4583 7.5C16.4583 6.23435 15.4323 5.20833 14.1667 5.20833C14.0798 5.20833 13.994 5.21317 13.9096 5.22259C14.053 5.6106 14.1403 6.0258 14.1615 6.45835C14.1633 6.45834 14.165 6.45833 14.1667 6.45833C14.742 6.45833 15.2083 6.9247 15.2083 7.5C15.2083 8.0753 14.742 8.54167 14.1667 8.54167C14.0231 8.54167 13.8864 8.51264 13.762 8.46014Z" fill="#131517"/>
<path fill-rule="evenodd" clip-rule="evenodd" d="M6.09037 5.22259C6.00599 5.21317 5.92023 5.20833 5.83333 5.20833C4.56768 5.20833 3.54167 6.23435 3.54167 7.5C3.54167 8.76565 4.56768 9.79167 5.83333 9.79167C6.23781 9.79167 6.61782 9.68688 6.94768 9.50297C6.66145 9.19508 6.42124 8.84382 6.238 8.46014C6.11359 8.51264 5.97685 8.54167 5.83333 8.54167C5.25804 8.54167 4.79167 8.0753 4.79167 7.5C4.79167 6.9247 5.25804 6.45833 5.83333 6.45833C5.83504 6.45833 5.83675 6.45834 5.83845 6.45835C5.85975 6.0258 5.94701 5.6106 6.09037 5.22259Z" fill="#131517"/>
</svg>
