<svg width="20" height="20" viewBox="0 0 20 20" fill="none" xmlns="http://www.w3.org/2000/svg">
<path d="M12.7082 5.83333C12.7082 7.3291 11.4956 8.54167 9.99984 8.54167V9.79167C12.186 9.79167 13.9582 8.01946 13.9582 5.83333H12.7082ZM9.99984 8.54167C8.50407 8.54167 7.2915 7.3291 7.2915 5.83333H6.0415C6.0415 8.01946 7.81371 9.79167 9.99984 9.79167V8.54167ZM7.2915 5.83333C7.2915 4.33756 8.50407 3.125 9.99984 3.125V1.875C7.81371 1.875 6.0415 3.64721 6.0415 5.83333H7.2915ZM9.99984 3.125C11.4956 3.125 12.7082 4.33756 12.7082 5.83333H13.9582C13.9582 3.64721 12.186 1.875 9.99984 1.875V3.125ZM15.2082 14.5833C15.2082 15.0245 14.8343 15.5921 13.8451 16.0867C12.8933 16.5626 11.5347 16.875 9.99984 16.875V18.125C11.6867 18.125 13.2447 17.7845 14.4041 17.2047C15.5262 16.6437 16.4582 15.753 16.4582 14.5833H15.2082ZM9.99984 16.875C8.465 16.875 7.10636 16.5626 6.15456 16.0867C5.16537 15.5921 4.7915 15.0245 4.7915 14.5833H3.5415C3.5415 15.753 4.47347 16.6437 5.59554 17.2047C6.75499 17.7845 8.31302 18.125 9.99984 18.125V16.875ZM4.7915 14.5833C4.7915 14.1422 5.16537 13.5745 6.15456 13.08C7.10636 12.6041 8.465 12.2917 9.99984 12.2917V11.0417C8.31302 11.0417 6.75499 11.3822 5.59554 11.9619C4.47347 12.523 3.5415 13.4137 3.5415 14.5833H4.7915ZM9.99984 12.2917C11.5347 12.2917 12.8933 12.6041 13.8451 13.08C14.8343 13.5745 15.2082 14.1422 15.2082 14.5833H16.4582C16.4582 13.4137 15.5262 12.523 14.4041 11.9619C13.2447 11.3822 11.6867 11.0417 9.99984 11.0417V12.2917Z" fill="#131517"/>
</svg>
