<svg width="20" height="20" viewBox="0 0 20 20" fill="none" xmlns="http://www.w3.org/2000/svg">
<path d="M17.8912 17.1085C18.1353 17.3526 18.531 17.3526 18.7751 17.1085C19.0192 16.8645 19.0192 16.4687 18.7751 16.2246L17.8912 17.1085ZM17.5251 14.9746C17.281 14.7306 16.8853 14.7306 16.6412 14.9746C16.3972 15.2187 16.3972 15.6144 16.6412 15.8585L17.5251 14.9746ZM5.83317 12.2916C6.17835 12.2916 6.45817 12.0118 6.45817 11.6666C6.45817 11.3214 6.17835 11.0416 5.83317 11.0416V12.2916ZM1.6665 11.0416C1.32133 11.0416 1.0415 11.3214 1.0415 11.6666C1.0415 12.0118 1.32133 12.2916 1.6665 12.2916V11.0416ZM5.83317 8.12492C6.17835 8.12492 6.45817 7.8451 6.45817 7.49992C6.45817 7.15474 6.17835 6.87492 5.83317 6.87492V8.12492ZM1.6665 6.87492C1.32133 6.87492 1.0415 7.15474 1.0415 7.49992C1.0415 7.8451 1.32133 8.12492 1.6665 8.12492V6.87492ZM12.4998 3.95825C12.845 3.95825 13.1248 3.67843 13.1248 3.33325C13.1248 2.98807 12.845 2.70825 12.4998 2.70825V3.95825ZM1.6665 2.70825C1.32133 2.70825 1.0415 2.98807 1.0415 3.33325C1.0415 3.67843 1.32133 3.95825 1.6665 3.95825V2.70825ZM18.7751 16.2246L17.5251 14.9746L16.6412 15.8585L17.8912 17.1085L18.7751 16.2246ZM17.7082 11.6666C17.7082 14.0828 15.7494 16.0416 13.3332 16.0416V17.2916C16.4398 17.2916 18.9582 14.7732 18.9582 11.6666H17.7082ZM13.3332 16.0416C10.9169 16.0416 8.95817 14.0828 8.95817 11.6666H7.70817C7.70817 14.7732 10.2266 17.2916 13.3332 17.2916V16.0416ZM8.95817 11.6666C8.95817 9.25034 10.9169 7.29159 13.3332 7.29159V6.04159C10.2266 6.04159 7.70817 8.55998 7.70817 11.6666H8.95817ZM13.3332 7.29159C15.7494 7.29159 17.7082 9.25034 17.7082 11.6666H18.9582C18.9582 8.55998 16.4398 6.04159 13.3332 6.04159V7.29159ZM5.83317 11.0416H1.6665V12.2916H5.83317V11.0416ZM5.83317 6.87492H1.6665V8.12492H5.83317V6.87492ZM12.4998 2.70825H1.6665V3.95825H12.4998V2.70825Z" fill="#131517"/>
</svg>
